<svg width="14" height="13" viewBox="0 0 14 13" fill="none" xmlns="http://www.w3.org/2000/svg">
<path d="M0.899583 11.2138C0.509058 11.6043 0.509058 12.2375 0.899583 12.628C1.29011 13.0185 1.92327 13.0185 2.3138 12.628L0.899583 11.2138ZM13.2133 1.3143C13.2133 0.762013 12.7656 0.314298 12.2133 0.314298L3.21329 0.314298C2.66101 0.314298 2.21329 0.762013 2.21329 1.3143C2.21329 1.86658 2.66101 2.3143 3.21329 2.3143L11.2133 2.3143L11.2133 10.3143C11.2133 10.8666 11.661 11.3143 12.2133 11.3143C12.7656 11.3143 13.2133 10.8666 13.2133 10.3143L13.2133 1.3143ZM2.3138 12.628L12.9204 2.0214L11.5062 0.607191L0.899583 11.2138L2.3138 12.628Z" fill="white"/>
</svg>
