<svg width="30" height="30" viewBox="0 0 30 30" fill="none" xmlns="http://www.w3.org/2000/svg">
<path fill-rule="evenodd" clip-rule="evenodd" d="M1.36479 0C0.611037 0 0 0.610521 0 1.36364C0 2.11675 0.611037 2.72727 1.36479 2.72727H3.02877L7.8932 22.1685C6.45922 22.8049 5.45916 24.2403 5.45916 25.9091C5.45916 28.1684 7.29227 30 9.55353 30C11.8148 30 13.6479 28.1684 13.6479 25.9091C13.6479 25.431 13.5658 24.972 13.4149 24.5455H19.34C19.1892 24.972 19.1071 25.431 19.1071 25.9091C19.1071 28.1684 20.9402 30 23.2014 30C25.4627 30 27.2958 28.1684 27.2958 25.9091C27.2958 23.6497 25.4627 21.8182 23.2014 21.8182H10.6191L9.93673 19.0909H23.2014C26.0186 19.0909 27.7079 17.3126 28.6452 15.3489C29.5612 13.4301 29.8801 11.1367 29.9912 9.46866C30.1461 7.14564 28.2242 5.45455 26.0963 5.45455H6.52475L5.67685 2.06581C5.37307 0.85172 4.28129 0 3.02877 0H1.36479ZM23.2014 16.3636H9.25433L7.20715 8.18182H26.0963C26.8511 8.18182 27.3044 8.73647 27.2677 9.28743C27.1639 10.8439 26.8735 12.7252 26.1815 14.1748C25.5109 15.5796 24.5937 16.3636 23.2014 16.3636ZM23.2014 27.2643C22.4523 27.2643 21.8451 26.6576 21.8451 25.9091C21.8451 25.1606 22.4523 24.5539 23.2014 24.5539C23.9505 24.5539 24.5578 25.1606 24.5578 25.9091C24.5578 26.6576 23.9505 27.2643 23.2014 27.2643ZM8.19716 25.9091C8.19716 26.6576 8.80443 27.2643 9.55353 27.2643C10.3026 27.2643 10.9099 26.6576 10.9099 25.9091C10.9099 25.1606 10.3026 24.5539 9.55353 24.5539C8.80443 24.5539 8.19716 25.1606 8.19716 25.9091Z" fill="white"/>
</svg>
