<svg width="792" height="952" viewBox="0 0 792 952" fill="none" xmlns="http://www.w3.org/2000/svg">
<path d="M257.677 287.867V429.918H360.598V287.867H257.677Z" stroke="white" stroke-width="4"/>
<path d="M139.106 366.392H2V289.632M139.106 366.392V710.5H501.774V950H789.5V724.647H619.925L615.296 366.392H446.184V2H166.83M139.106 366.392H172.593M166.83 289.632H2M166.83 289.632V292.94V317.865M166.83 289.632V270.221M2 289.632V214.195M166.83 214.195H2M166.83 214.195V242.869M166.83 214.195V189.931M2 214.195V134.787M166.83 134.787H2M166.83 134.787V161.697M166.83 134.787V115.376M2 134.787V68.1729M166.83 68.1729H2M166.83 68.1729V90.2306M166.83 68.1729V50.5268M2 68.1729V2H166.83M166.83 2V25.8223" stroke="white" stroke-width="4"/>
</svg>
