<svg width="20" height="22" viewBox="0 0 20 22" fill="none" xmlns="http://www.w3.org/2000/svg">
<path fill-rule="evenodd" clip-rule="evenodd" d="M2.18753 10.3788C2.03002 10.759 2 10.9533 2 11V19.0018C2 19.5529 2.44652 20 3 20H6V14C6 12.8954 6.89543 12 8 12H12C13.1046 12 14 12.8954 14 14V20H17C17.5535 20 18 19.5529 18 19.0018V11C18 10.9533 17.97 10.759 17.8125 10.3788C17.6662 10.0256 17.4443 9.5926 17.1547 9.10248C16.5764 8.1238 15.765 6.97999 14.8568 5.89018C13.9465 4.79788 12.9639 3.78969 12.0502 3.06454C11.5935 2.70204 11.1736 2.42608 10.8055 2.2444C10.429 2.05862 10.1641 2 10 2C9.8359 2 9.57095 2.05862 9.1945 2.2444C8.82635 2.42608 8.40653 2.70204 7.94978 3.06454C7.03609 3.78969 6.05348 4.79788 5.14322 5.89018C4.23505 6.97999 3.42361 8.1238 2.8453 9.10248C2.55568 9.5926 2.33385 10.0256 2.18753 10.3788ZM8.30941 0.450912C8.8353 0.19138 9.4141 0 10 0C10.5859 0 11.1647 0.19138 11.6906 0.450912C12.2248 0.71454 12.7659 1.07921 13.2935 1.49796C14.3486 2.33531 15.4285 3.45212 16.3932 4.60982C17.3601 5.77001 18.2361 7.0012 18.8766 8.08502C19.1963 8.62614 19.4667 9.14623 19.6602 9.61335C19.8425 10.0535 20 10.5467 20 11V19.0018C20 20.6599 18.6557 22 17 22H14C12.8954 22 12 21.1046 12 20V14H8V20C8 21.1046 7.10457 22 6 22H3C1.34434 22 0 20.6599 0 19.0018V11C0 10.5467 0.157481 10.0535 0.339816 9.61335C0.533339 9.14623 0.803693 8.62614 1.12345 8.08502C1.76389 7.0012 2.63995 5.77001 3.60678 4.60982C4.57152 3.45212 5.65141 2.33531 6.70647 1.49796C7.2341 1.07921 7.77521 0.71454 8.30941 0.450912Z" fill="white"/>
</svg>
