<svg width="102" height="152" viewBox="0 0 102 152" fill="none" xmlns="http://www.w3.org/2000/svg">
<rect x="24.4683" y="1" width="54.2601" height="102.74" rx="23.8063" stroke="white" stroke-width="2"/>
<path d="M79.8913 151H22.9183C21.368 151 17.9911 149.21 17.8799 146.479C17.7643 143.643 20.9804 141.548 22.9183 141.548H45.3974C46.5602 141.548 45.3974 130.452 45.3974 128.808C45.3974 127.164 34.5455 125.932 27.5691 122.233C20.5928 118.534 13.5256 112.65 8.19055 103.329C4.0436 96.083 2.88527 91.1465 1.60183 82.7808C0.532244 75.8091 1.21426 64.6986 1.21426 64.6986C1.21426 64.6986 1.21426 58.1233 6.64026 58.1233C12.0663 58.1233 12.0663 64.6986 12.0663 64.6986C12.0663 64.6986 10.7525 75.858 12.0663 82.7808C13.4306 89.9702 14.9539 94.1263 19.0426 100.041C23.1673 106.008 26.4756 108.84 32.6076 112.37C36.858 114.816 38.5226 115.661 43.2969 116.479C48.0806 117.3 51.8731 117.42 56.637 116.479C61.5317 115.514 65.4907 114.075 69.8621 111.548C75.3322 108.386 77.6186 105.377 81.4722 100.305L81.6724 100.041C84.6529 96.119 85.5363 94.4627 87.2552 89.7671C88.6633 85.9206 88.9752 83.5691 89.5807 79.4932C90.5935 72.6743 89.9682 61.8219 89.9682 61.8219C89.9682 61.8219 91.1309 58.1233 95.3942 58.1233C99.6575 58.1233 100.433 61.8219 100.433 61.8219C100.433 61.8219 101.387 72.6164 100.82 79.4932C100.42 84.3557 100.264 87.1658 98.8824 91.8219C96.9102 98.4686 94.7847 101.944 90.7434 107.438C85.3921 114.714 81.3511 118.269 73.6902 122.644C67.4955 126.182 57.0246 127.575 56.637 128.808C56.2495 130.041 55.4743 141.548 56.637 141.548C57.7998 141.548 77.5659 141.137 79.8913 141.548C82.2168 141.959 83.8689 143.975 83.7671 146.479C83.6702 148.863 82.2168 151 79.8913 151Z" stroke="white" stroke-width="2" stroke-linecap="round"/>
</svg>
