<svg width="595" height="842" viewBox="0 0 595 842" fill="none" xmlns="http://www.w3.org/2000/svg">
<g clip-path="url(#clip0_536_502)">
<rect width="595" height="842" fill="white"/>
<path d="M457.155 23V15.5H460.725C462.405 15.5 463.53 16.28 463.53 17.42C463.53 18.2 462.93 18.86 462.015 19.175C463.17 19.43 463.875 20.075 463.875 20.975C463.875 22.175 462.6 23 460.725 23H457.155ZM462.45 17.555C462.45 16.82 461.76 16.355 460.725 16.355H458.265V18.8H460.725C461.685 18.8 462.45 18.26 462.45 17.555ZM462.765 20.885C462.765 20.12 461.985 19.61 460.725 19.61H458.265V22.13H460.725C461.955 22.13 462.765 21.65 462.765 20.885ZM468.731 19.205L471.746 23H470.321L468.026 20.105L465.731 23H464.291L467.306 19.205L464.351 15.5H465.791L468.026 18.305L470.246 15.5H471.671L468.731 19.205ZM472.158 19.265C472.158 16.97 473.853 15.275 476.103 15.275C478.413 15.275 480.093 16.895 480.093 19.265C480.093 21.605 478.413 23.225 476.103 23.225C473.853 23.225 472.158 21.53 472.158 19.265ZM473.358 19.25C473.358 20.885 474.543 22.085 476.103 22.085C477.768 22.085 478.893 20.945 478.893 19.25C478.893 17.555 477.753 16.4 476.103 16.4C474.528 16.4 473.358 17.615 473.358 19.25ZM481.196 21.95H482.321C482.891 20.87 483.176 19.7 483.176 18.32V15.5L488.996 15.5V21.95H490.406V24.95H489.266V23L482.306 23V24.95H481.196V21.95ZM483.491 21.95L487.871 21.95V16.535L484.301 16.535V18.32C484.301 19.7 484.031 20.885 483.491 21.95ZM496.634 19.25C496.634 20.915 497.789 22.13 499.364 22.13C500.609 22.13 501.599 21.425 501.989 20.36H503.234C502.739 22.085 501.284 23.225 499.364 23.225C497.114 23.225 495.434 21.53 495.434 19.265C495.434 16.97 497.099 15.275 499.364 15.275C501.269 15.275 502.724 16.4 503.219 18.125H501.974C501.569 17.075 500.594 16.355 499.364 16.355C497.789 16.355 496.634 17.6 496.634 19.25ZM504.982 23V15.5L508.552 15.5C510.232 15.5 511.357 16.28 511.357 17.42C511.357 18.2 510.757 18.86 509.842 19.175C510.997 19.43 511.702 20.075 511.702 20.975C511.702 22.175 510.427 23 508.552 23H504.982ZM510.277 17.555C510.277 16.82 509.587 16.355 508.552 16.355H506.092V18.8H508.552C509.512 18.8 510.277 18.26 510.277 17.555ZM510.592 20.885C510.592 20.12 509.812 19.61 508.552 19.61H506.092V22.13H508.552C509.782 22.13 510.592 21.65 510.592 20.885ZM512.91 19.265C512.91 16.97 514.605 15.275 516.855 15.275C519.165 15.275 520.845 16.895 520.845 19.265C520.845 21.605 519.165 23.225 516.855 23.225C514.605 23.225 512.91 21.53 512.91 19.265ZM514.11 19.25C514.11 20.885 515.295 22.085 516.855 22.085C518.52 22.085 519.645 20.945 519.645 19.25C519.645 17.555 518.505 16.4 516.855 16.4C515.28 16.4 514.11 17.615 514.11 19.25ZM522.08 19.355C522.08 16.22 522.47 14.93 523.37 13.94C524.78 12.38 526.595 13.34 528.455 11.84L528.995 12.695C527.075 14.3 525.53 13.355 524.345 14.66C523.79 15.29 523.49 16.175 523.37 17.39C523.955 16.475 524.96 15.845 526.145 15.845C528.17 15.845 529.64 17.405 529.64 19.355C529.64 21.635 528.23 23.225 525.845 23.225C523.505 23.225 522.08 21.515 522.08 19.355ZM525.845 22.085C527.54 22.085 528.44 20.9 528.44 19.355C528.44 17.975 527.375 16.835 525.845 16.835C524.33 16.835 523.28 18.035 523.28 19.355C523.28 20.9 524.165 22.085 525.845 22.085ZM530.898 19.265C530.898 16.97 532.593 15.275 534.843 15.275C537.153 15.275 538.833 16.895 538.833 19.265C538.833 21.605 537.153 23.225 534.843 23.225C532.593 23.225 530.898 21.53 530.898 19.265ZM532.098 19.25C532.098 20.885 533.283 22.085 534.843 22.085C536.508 22.085 537.633 20.945 537.633 19.25C537.633 17.555 536.493 16.4 534.843 16.4C533.268 16.4 532.098 17.615 532.098 19.25ZM539.936 21.95H541.061C541.631 20.87 541.916 19.7 541.916 18.32V15.5H547.736V21.95H549.146V24.95H548.006V23H541.046V24.95H539.936V21.95ZM542.231 21.95H546.611V16.535H543.041V18.32C543.041 19.7 542.771 20.885 542.231 21.95ZM550.934 23V15.5H552.134V18.665H557.294V15.5L558.494 15.5V23H557.294V19.82H552.134V23H550.934ZM560.778 15.5H561.978V17.51H564.483C566.748 17.51 568.158 18.575 568.158 20.255C568.158 22.01 566.838 23 564.483 23L560.778 23V15.5ZM569.763 15.5H570.963V23H569.763V15.5ZM566.958 20.255C566.958 19.16 565.998 18.485 564.483 18.485H561.978V22.04H564.483C566.058 22.04 566.958 21.395 566.958 20.255ZM577.038 14.585C575.718 14.585 574.473 13.76 574.473 12.5H575.433C575.433 13.19 576.138 13.79 577.038 13.79C577.953 13.79 578.643 13.205 578.643 12.5H579.588C579.588 13.655 578.508 14.585 577.038 14.585ZM580.743 23H579.543V17.345L574.278 23H573.273V15.5H574.473V21.125L579.753 15.5L580.743 15.5V23Z" fill="black"/>
<path d="M10 820.5H11.29L14.065 826.59L16.87 820.5H18.145L14.71 828H13.42L10 820.5ZM18.5259 824.265C18.5259 821.97 20.2209 820.275 22.4709 820.275C24.7809 820.275 26.4609 821.895 26.4609 824.265C26.4609 826.605 24.7809 828.225 22.4709 828.225C20.2209 828.225 18.5259 826.53 18.5259 824.265ZM19.7259 824.25C19.7259 825.885 20.9109 827.085 22.4709 827.085C24.1359 827.085 25.2609 825.945 25.2609 824.25C25.2609 822.555 24.1209 821.4 22.4709 821.4C20.8959 821.4 19.7259 822.615 19.7259 824.25ZM28.2808 817.92C28.2808 817.53 28.5358 817.275 28.9108 817.275C29.3008 817.275 29.5558 817.53 29.5558 817.92C29.5558 818.295 29.3008 818.55 28.9108 818.55C28.5358 818.55 28.2808 818.295 28.2808 817.92ZM29.5108 828H28.3108L28.3108 820.5H29.5108L29.5108 828ZM32.6165 824.25C32.6165 825.915 33.7715 827.13 35.3465 827.13C36.5915 827.13 37.5815 826.425 37.9715 825.36H39.2165C38.7215 827.085 37.2665 828.225 35.3465 828.225C33.0965 828.225 31.4165 826.53 31.4165 824.265C31.4165 821.97 33.0815 820.275 35.3465 820.275C37.2515 820.275 38.7065 821.4 39.2015 823.125H37.9565C37.5515 822.075 36.5765 821.355 35.3465 821.355C33.7715 821.355 32.6165 822.6 32.6165 824.25ZM41.0396 817.92C41.0396 817.53 41.2946 817.275 41.6696 817.275C42.0596 817.275 42.3146 817.53 42.3146 817.92C42.3146 818.295 42.0596 818.55 41.6696 818.55C41.2946 818.55 41.0396 818.295 41.0396 817.92ZM42.2696 828H41.0696V820.5H42.2696V828ZM50.7453 824.205V820.5H51.9453V828H50.9103L50.7603 826.515C50.1753 827.565 49.1553 828.225 47.9403 828.225C46.0353 828.225 44.6853 826.545 44.6853 824.205V820.5H45.8853V824.205C45.8853 825.93 46.8453 827.085 48.3003 827.085C49.7553 827.085 50.7453 825.915 50.7453 824.205ZM55.4654 824.295V828H54.2654V820.5H55.3004L55.4504 821.94C56.0054 820.905 56.9504 820.275 58.0904 820.275C59.4254 820.275 60.4604 821.13 60.9254 822.495C61.4204 821.145 62.5004 820.275 63.8204 820.275C65.6504 820.275 66.9404 821.94 66.9404 824.295V828H65.7404V824.295C65.7404 822.555 64.8104 821.4 63.4604 821.4C62.1404 821.4 61.2104 822.57 61.2104 824.295V828H60.0104V824.295C60.0104 822.555 59.1104 821.4 57.7304 821.4C56.3804 821.4 55.4654 822.57 55.4654 824.295ZM68.7554 827.46C68.7554 827.025 69.0554 826.725 69.4904 826.725C69.9704 826.725 70.2704 827.025 70.2704 827.46C70.2704 827.94 69.9704 828.225 69.4904 828.225C69.0554 828.225 68.7554 827.94 68.7554 827.46ZM72.5042 824.25C72.5042 825.915 73.6592 827.13 75.2342 827.13C76.4792 827.13 77.4692 826.425 77.8592 825.36H79.1042C78.6092 827.085 77.1542 828.225 75.2342 828.225C72.9842 828.225 71.3042 826.53 71.3042 824.265C71.3042 821.97 72.9692 820.275 75.2342 820.275C77.1392 820.275 78.5942 821.4 79.0892 823.125H77.8442C77.4392 822.075 76.4642 821.355 75.2342 821.355C73.6592 821.355 72.5042 822.6 72.5042 824.25ZM80.1518 824.265C80.1518 821.97 81.8468 820.275 84.0968 820.275C86.4068 820.275 88.0868 821.895 88.0868 824.265C88.0868 826.605 86.4068 828.225 84.0968 828.225C81.8468 828.225 80.1518 826.53 80.1518 824.265ZM81.3518 824.25C81.3518 825.885 82.5368 827.085 84.0968 827.085C85.7618 827.085 86.8868 825.945 86.8868 824.25C86.8868 822.555 85.7468 821.4 84.0968 821.4C82.5218 821.4 81.3518 822.615 81.3518 824.25ZM91.0318 824.295V828H89.8318V820.5H90.8668L91.0168 821.94C91.5718 820.905 92.5168 820.275 93.6568 820.275C94.9918 820.275 96.0268 821.13 96.4918 822.495C96.9868 821.145 98.0668 820.275 99.3868 820.275C101.217 820.275 102.507 821.94 102.507 824.295V828H101.307V824.295C101.307 822.555 100.377 821.4 99.0268 821.4C97.7068 821.4 96.7768 822.57 96.7768 824.295V828H95.5768V824.295C95.5768 822.555 94.6768 821.4 93.2968 821.4C91.9468 821.4 91.0318 822.57 91.0318 824.295Z" fill="black"/>
<path d="M503 598L503 602.3L482.7 611.55L503 620.9L503 625.15L478 613.7L478 609.4L503 598ZM490.45 626.42C498.1 626.42 503.75 632.07 503.75 639.57C503.75 647.27 498.35 652.87 490.45 652.87C482.65 652.87 477.25 647.27 477.25 639.57C477.25 632.07 482.9 626.42 490.45 626.42ZM490.5 630.42C485.05 630.42 481.05 634.37 481.05 639.57C481.05 645.12 484.85 648.87 490.5 648.87C496.15 648.87 500 645.07 500 639.57C500 634.32 495.95 630.42 490.5 630.42ZM511.6 658.936C512.9 658.936 513.75 659.786 513.75 661.036C513.75 662.336 512.9 663.186 511.6 663.186C510.35 663.186 509.5 662.336 509.5 661.036C509.5 659.786 510.35 658.936 511.6 658.936ZM478 663.036L478 659.036L503 659.036L503 663.036L478 663.036ZM490.5 673.388C484.95 673.388 480.9 677.238 480.9 682.488C480.9 686.638 483.25 689.938 486.8 691.238L486.8 695.388C481.05 693.738 477.25 688.888 477.25 682.488C477.25 674.988 482.9 669.388 490.45 669.388C498.1 669.388 503.75 674.938 503.75 682.488C503.75 688.838 500 693.688 494.25 695.338L494.25 691.188C497.75 689.838 500.15 686.588 500.15 682.488C500.15 677.238 496 673.388 490.5 673.388ZM511.6 701.465C512.9 701.465 513.75 702.315 513.75 703.565C513.75 704.865 512.9 705.715 511.6 705.715C510.35 705.715 509.5 704.865 509.5 703.565C509.5 702.315 510.35 701.465 511.6 701.465ZM478 705.565L478 701.565L503 701.565L503 705.565L478 705.565ZM490.65 733.818L503 733.818L503 737.818L478 737.818L478 734.368L482.95 733.868C479.45 731.918 477.25 728.518 477.25 724.468C477.25 718.118 482.85 713.618 490.65 713.618L503 713.618L503 717.618L490.65 717.618C484.9 717.618 481.05 720.818 481.05 725.668C481.05 730.518 484.95 733.818 490.65 733.818ZM490.35 749.551L478 749.551L478 745.551L503 745.551L503 749.001L498.2 749.501C501.65 751.351 503.75 754.501 503.75 758.301C503.75 762.751 500.9 766.201 496.35 767.751C500.85 769.401 503.75 773.001 503.75 777.401C503.75 783.501 498.2 787.801 490.35 787.801L478 787.801L478 783.801L490.35 783.801C496.15 783.801 500 780.701 500 776.201C500 771.801 496.1 768.701 490.35 768.701L478 768.701L478 764.701L490.35 764.701C496.15 764.701 500 761.701 500 757.101C500 752.601 496.1 749.551 490.35 749.551Z" fill="black"/>
<path d="M394.45 50.7L409 52.65L409 73.8L384 73.8L384 69.8L405.25 69.8L405.25 56.15L394.15 54.7C386.2 53.8 383.25 51.15 383.25 45.15L386.9 45.15C386.9 48.55 388.9 50 394.45 50.7ZM395.35 105.567L395.35 83.9168C390.2 84.3668 386.45 87.9168 386.45 92.6668C386.45 96.1668 388.25 99.0168 391.1 100.667L391.1 104.767C386.25 102.717 383.25 98.2668 383.25 92.6668C383.25 85.3168 388.9 79.8668 396.45 79.8668C404.1 79.8668 409.75 85.2168 409.75 92.6668C409.75 100.267 404.35 105.617 396.45 105.617C396.1 105.617 395.75 105.567 395.35 105.567ZM397.65 83.9168L397.65 101.567C402.9 101.117 406.45 97.6168 406.45 92.6668C406.45 87.9168 402.8 84.3668 397.65 83.9168ZM394.6 115.596L384 115.596L384 111.596L409 111.596L409 115.596L398.3 115.596L398.3 120.046L409 128.196L409 132.696L396.5 123.046L384 133.896L384 129.196L394.6 120.146L394.6 115.596ZM384 137.768L409 137.768L409 141.768L387.8 141.768L387.8 159.368L409 159.368L409 163.368L387.8 163.368L387.8 168.118L375.7 168.118L375.7 164.418L384 164.418L384 137.768ZM384 198.898L384 194.898L402.85 194.898L384 177.348L384 173.998L409 173.998L409 177.998L390.25 177.998L409 195.598L409 198.898L384 198.898ZM384 207.317L384 202.717L392.3 209.967C393.6 206.117 396.4 203.617 400.3 203.617C405.65 203.617 409 208.467 409 215.167L409 225.817L384 225.817L384 222.117L391.5 222.117L391.5 215.167C391.5 214.567 391.55 214.017 391.6 213.467L384 207.317ZM400.3 207.467C396.8 207.467 394.75 210.417 394.75 215.167L394.75 222.117L405.7 222.117L405.7 215.167C405.7 210.467 403.65 207.467 400.3 207.467ZM396.45 244.369C404.1 244.369 409.75 250.019 409.75 257.519C409.75 265.219 404.35 270.819 396.45 270.819C388.65 270.819 383.25 265.219 383.25 257.519C383.25 250.019 388.9 244.369 396.45 244.369ZM396.5 248.369C391.05 248.369 387.05 252.319 387.05 257.519C387.05 263.069 390.85 266.819 396.5 266.819C402.15 266.819 406 263.019 406 257.519C406 252.269 401.95 248.369 396.5 248.369ZM383.25 299.585C383.25 293.435 386.9 288.635 392.4 288.635L392.4 292.335C388.65 292.335 386.3 295.535 386.3 299.585C386.3 303.835 388.15 306.735 390.95 306.735C393.75 306.735 395.6 303.735 395.6 299.235L395.6 296.635L398.1 296.635L398.1 299.235C398.1 303.835 399.4 306.035 402.4 306.035C405.05 306.035 406.65 303.535 406.65 299.485C406.65 295.835 404.3 293.035 401.2 293.035L401.2 289.335C405.95 289.335 409.6 293.785 409.6 299.435C409.6 305.835 406.85 309.885 402.8 309.885C399.85 309.885 397.9 308.385 396.9 305.435C395.75 308.735 393.6 310.585 390.55 310.585C386.2 310.585 383.25 306.135 383.25 299.585ZM384 316.967L409 316.967L409 328.867C409 334.467 406.4 338.217 402.6 338.217C400 338.217 397.8 336.217 396.75 333.167C395.9 337.017 393.75 339.367 390.75 339.367C386.75 339.367 384 335.117 384 328.867L384 316.967ZM402.15 334.617C404.6 334.617 406.15 332.317 406.15 328.867L406.15 320.667L398 320.667L398 328.867C398 332.067 399.8 334.617 402.15 334.617ZM391.05 335.667C393.6 335.667 395.3 333.067 395.3 328.867L395.3 320.667L386.9 320.667L386.9 328.867C386.9 332.967 388.5 335.667 391.05 335.667ZM374.15 356.26L374.15 352.06L384 355.46L384 349.01L409 340.51L409 344.61L388.15 351.76L388.15 356.86L409 364.01L409 368.06L374.15 356.26ZM394.6 375.996L384 375.996L384 371.996L409 371.996L409 375.996L398.3 375.996L398.3 380.446L409 388.596L409 393.096L396.5 383.446L384 394.296L384 389.596L394.6 380.546L394.6 375.996ZM396.45 395.541C404.1 395.541 409.75 401.191 409.75 408.691C409.75 416.391 404.35 421.991 396.45 421.991C388.65 421.991 383.25 416.391 383.25 408.691C383.25 401.191 388.9 395.541 396.45 395.541ZM396.5 399.541C391.05 399.541 387.05 403.491 387.05 408.691C387.05 414.241 390.85 417.991 396.5 417.991C402.15 417.991 406 414.191 406 408.691C406 403.441 401.95 399.541 396.5 399.541ZM384 427.807L409 427.807L409 439.707C409 445.307 406.4 449.057 402.6 449.057C400 449.057 397.8 447.057 396.75 444.007C395.9 447.857 393.75 450.207 390.75 450.207C386.75 450.207 384 445.957 384 439.707L384 427.807ZM402.15 445.457C404.6 445.457 406.15 443.157 406.15 439.707L406.15 431.507L398 431.507L398 439.707C398 442.907 399.8 445.457 402.15 445.457ZM391.05 446.507C393.6 446.507 395.3 443.907 395.3 439.707L395.3 431.507L386.9 431.507L386.9 439.707C386.9 443.807 388.5 446.507 391.05 446.507ZM396.45 454.232C404.1 454.232 409.75 459.882 409.75 467.382C409.75 475.082 404.35 480.682 396.45 480.682C388.65 480.682 383.25 475.082 383.25 467.382C383.25 459.882 388.9 454.232 396.45 454.232ZM396.5 458.232C391.05 458.232 387.05 462.182 387.05 467.382C387.05 472.932 390.85 476.682 396.5 476.682C402.15 476.682 406 472.882 406 467.382C406 462.132 401.95 458.232 396.5 458.232ZM403 490.198L384 490.198L384 486.498L409 486.498L409 490.648L389.5 500.198L409 509.798L409 513.898L384 513.898L384 510.198L402.8 510.198L384 501.348L384 499.048L403 490.198ZM384 559.055L384 555.055L402.85 555.055L384 537.505L384 534.155L409 534.155L409 538.155L390.25 538.155L409 555.755L409 559.055L384 559.055ZM396.5 569.023C390.95 569.023 386.9 572.873 386.9 578.123C386.9 582.273 389.25 585.573 392.8 586.873L392.8 591.023C387.05 589.373 383.25 584.523 383.25 578.123C383.25 570.623 388.9 565.023 396.45 565.023C404.1 565.023 409.75 570.573 409.75 578.123C409.75 584.473 406 589.323 400.25 590.973L400.25 586.823C403.75 585.473 406.15 582.223 406.15 578.123C406.15 572.873 402 569.023 396.5 569.023ZM394.6 600.85L384 600.85L384 596.85L409 596.85L409 600.85L398.3 600.85L398.3 605.3L409 613.45L409 617.95L396.5 608.3L384 619.15L384 614.45L394.6 605.4L394.6 600.85ZM374.15 634.922L374.15 630.722L384 634.122L384 627.672L409 619.172L409 623.272L388.15 630.422L388.15 635.522L409 642.672L409 646.722L374.15 634.922ZM396.5 652.08C390.95 652.08 386.9 655.93 386.9 661.18C386.9 665.33 389.25 668.63 392.8 669.93L392.8 674.08C387.05 672.43 383.25 667.58 383.25 661.18C383.25 653.68 388.9 648.08 396.45 648.08C404.1 648.08 409.75 653.63 409.75 661.18C409.75 667.53 406 672.38 400.25 674.03L400.25 669.88C403.75 668.53 406.15 665.28 406.15 661.18C406.15 655.93 402 652.08 396.5 652.08ZM396.5 681.572C390.95 681.572 386.9 685.422 386.9 690.672C386.9 694.822 389.25 698.122 392.8 699.422L392.8 703.572C387.05 701.922 383.25 697.072 383.25 690.672C383.25 683.172 388.9 677.572 396.45 677.572C404.1 677.572 409.75 683.122 409.75 690.672C409.75 697.022 406 701.872 400.25 703.522L400.25 699.372C403.75 698.022 406.15 694.772 406.15 690.672C406.15 685.422 402 681.572 396.5 681.572ZM384 716.856L405.25 716.856L405.25 706.556L409 706.556L409 731.206L405.25 731.206L405.25 720.856L384 720.856L384 716.856ZM384 736.303L409 736.303L409 748.203C409 753.803 406.4 757.553 402.6 757.553C400 757.553 397.8 755.553 396.75 752.503C395.9 756.353 393.75 758.703 390.75 758.703C386.75 758.703 384 754.453 384 748.203L384 736.303ZM402.15 753.953C404.6 753.953 406.15 751.653 406.15 748.203L406.15 740.003L398 740.003L398 748.203C398 751.403 399.8 753.953 402.15 753.953ZM391.05 755.003C393.6 755.003 395.3 752.403 395.3 748.203L395.3 740.003L386.9 740.003L386.9 748.203C386.9 752.303 388.5 755.003 391.05 755.003ZM395.35 788.428L395.35 766.778C390.2 767.228 386.45 770.778 386.45 775.528C386.45 779.028 388.25 781.878 391.1 783.528L391.1 787.628C386.25 785.578 383.25 781.128 383.25 775.528C383.25 768.178 388.9 762.728 396.45 762.728C404.1 762.728 409.75 768.078 409.75 775.528C409.75 783.128 404.35 788.478 396.45 788.478C396.1 788.478 395.75 788.428 395.35 788.428ZM397.65 766.778L397.65 784.428C402.9 783.978 406.45 780.478 406.45 775.528C406.45 770.778 402.8 767.228 397.65 766.778Z" fill="black"/>
<path d="M316.75 411.4C316.75 418.25 312.8 422.8 306 422.8C293.25 422.8 298.9 404.15 285 403.6L285 423.25L281 423.25L281 399.35L283.65 399.35C301.55 399.35 295.2 418.8 306.2 418.8C310.5 418.8 312.95 415.8 312.95 411.4C312.95 406.35 309.6 403.35 303.45 403.35L303.45 399.35C311.75 399.35 316.75 404.1 316.75 411.4ZM288.8 429.428L292.1 429.428L316 447.828L315.95 448.228L316 448.228L316 452.228L292.8 452.228L292.8 457.078L288.8 457.078L288.8 452.228L281 452.228L281 448.228L288.8 448.228L288.8 429.428ZM292.8 434.428L292.8 448.228L311.35 448.228L292.8 434.428ZM296.6 474.77L300.4 474.77L300.4 515.57L296.6 515.57L296.6 474.77ZM298.45 532.72C309 532.72 316.75 538.87 316.75 547.32C316.75 555.82 309.3 562.02 298.45 562.02C287.75 562.02 280.25 555.82 280.25 547.32C280.25 538.87 288.05 532.72 298.45 532.72ZM298.5 536.72C290.2 536.72 284.05 541.12 284.05 547.37C284.05 553.52 290.05 558.02 298.5 558.02C307 558.02 312.95 553.62 312.95 547.37C312.95 541.12 306.9 536.72 298.5 536.72ZM312 584.276L312 566.176L316 566.176L316 588.776L312.65 588.776L281 575.626L281 571.376L312 584.276ZM296.6 606.264L300.4 606.264L300.4 647.064L296.6 647.064L296.6 606.264ZM316.75 677.464C316.75 684.314 312.8 688.864 306 688.864C293.25 688.864 298.9 670.214 285 669.664L285 689.314L281 689.314L281 665.414L283.65 665.414C301.55 665.414 295.2 684.864 306.2 684.864C310.5 684.864 312.95 681.864 312.95 677.464C312.95 672.414 309.6 669.414 303.45 669.414L303.45 665.414C311.75 665.414 316.75 670.164 316.75 677.464ZM298.45 694.879C309 694.879 316.75 701.029 316.75 709.479C316.75 717.979 309.3 724.179 298.45 724.179C287.75 724.179 280.25 717.979 280.25 709.479C280.25 701.029 288.05 694.879 298.45 694.879ZM298.5 698.879C290.2 698.879 284.05 703.279 284.05 709.529C284.05 715.679 290.05 720.179 298.5 720.179C307 720.179 312.95 715.779 312.95 709.529C312.95 703.279 306.9 698.879 298.5 698.879ZM316.75 741.625C316.75 748.475 312.8 753.025 306 753.025C293.25 753.025 298.9 734.375 285 733.825L285 753.475L281 753.475L281 729.575L283.65 729.575C301.55 729.575 295.2 749.025 306.2 749.025C310.5 749.025 312.95 746.025 312.95 741.625C312.95 736.575 309.6 733.575 303.45 733.575L303.45 729.575C311.75 729.575 316.75 734.325 316.75 741.625ZM288.8 759.653L292.1 759.653L316 778.053L315.95 778.453L316 778.453L316 782.453L292.8 782.453L292.8 787.303L288.8 787.303L288.8 782.453L281 782.453L281 778.453L288.8 778.453L288.8 759.653ZM292.8 764.653L292.8 778.453L311.35 778.453L292.8 764.653Z" fill="black"/>
<path d="M211.65 333.8L215.55 333.8C215.65 337.7 216.85 340.85 219 343.65L219 346.95L184 346.95L184 342.95L213.85 342.95C212.45 340.4 211.75 337.3 211.65 333.8ZM215 371.448L215 353.348L219 353.348L219 375.948L215.65 375.948L184 362.798L184 358.548L215 371.448ZM199.6 393.436L203.4 393.436L203.4 434.236L199.6 434.236L199.6 393.436ZM201.45 451.386C212 451.386 219.75 457.536 219.75 465.986C219.75 474.486 212.3 480.686 201.45 480.686C190.75 480.686 183.25 474.486 183.25 465.986C183.25 457.536 191.05 451.386 201.45 451.386ZM201.5 455.386C193.2 455.386 187.05 459.786 187.05 466.036C187.05 472.186 193.05 476.686 201.5 476.686C210 476.686 215.95 472.286 215.95 466.036C215.95 459.786 209.9 455.386 201.5 455.386ZM201.45 484.882C212 484.882 219.75 491.032 219.75 499.482C219.75 507.982 212.3 514.182 201.45 514.182C190.75 514.182 183.25 507.982 183.25 499.482C183.25 491.032 191.05 484.882 201.45 484.882ZM201.5 488.882C193.2 488.882 187.05 493.282 187.05 499.532C187.05 505.682 193.05 510.182 201.5 510.182C210 510.182 215.95 505.782 215.95 499.532C215.95 493.282 209.9 488.882 201.5 488.882ZM199.6 531.229L203.4 531.229L203.4 572.029L199.6 572.029L199.6 531.229ZM219.75 602.429C219.75 609.279 215.8 613.829 209 613.829C196.25 613.829 201.9 595.179 188 594.629L188 614.279L184 614.279L184 590.379L186.65 590.379C204.55 590.379 198.2 609.829 209.2 609.829C213.5 609.829 215.95 606.829 215.95 602.429C215.95 597.379 212.6 594.379 206.45 594.379L206.45 590.379C214.75 590.379 219.75 595.129 219.75 602.429ZM201.45 619.843C212 619.843 219.75 625.993 219.75 634.443C219.75 642.943 212.3 649.143 201.45 649.143C190.75 649.143 183.25 642.943 183.25 634.443C183.25 625.993 191.05 619.843 201.45 619.843ZM201.5 623.843C193.2 623.843 187.05 628.243 187.05 634.493C187.05 640.643 193.05 645.143 201.5 645.143C210 645.143 215.95 640.743 215.95 634.493C215.95 628.243 209.9 623.843 201.5 623.843ZM199.6 666.189L203.4 666.189L203.4 706.989L199.6 706.989L199.6 666.189ZM201.45 724.14C212 724.14 219.75 730.29 219.75 738.74C219.75 747.24 212.3 753.44 201.45 753.44C190.75 753.44 183.25 747.24 183.25 738.74C183.25 730.29 191.05 724.14 201.45 724.14ZM201.5 728.14C193.2 728.14 187.05 732.54 187.05 738.79C187.05 744.94 193.05 749.44 201.5 749.44C210 749.44 215.95 745.04 215.95 738.79C215.95 732.54 209.9 728.14 201.5 728.14ZM201.45 757.636C212 757.636 219.75 763.786 219.75 772.236C219.75 780.736 212.3 786.936 201.45 786.936C190.75 786.936 183.25 780.736 183.25 772.236C183.25 763.786 191.05 757.636 201.45 757.636ZM201.5 761.636C193.2 761.636 187.05 766.036 187.05 772.286C187.05 778.436 193.05 782.936 201.5 782.936C210 782.936 215.95 778.536 215.95 772.286C215.95 766.036 209.9 761.636 201.5 761.636Z" fill="black"/>
<path d="M107 249.55L88 249.55L88 245.85L113 245.85L113 250L93.5 259.55L113 269.15L113 273.25L88 273.25L88 269.55L106.8 269.55L88 260.7L88 258.4L107 249.55ZM88 305.106L88 301.656L93.15 301.156C89.45 299.156 87.25 295.556 87.25 291.306C87.25 284.456 92.9 279.256 100.45 279.256C108.1 279.256 113.75 284.456 113.75 291.306C113.75 295.556 111.55 299.106 107.85 301.106L113 301.656L113 305.106L88 305.106ZM100.5 283.256C94.95 283.256 90.9 287.106 90.9 292.356C90.9 297.506 94.8 301.106 100.5 301.106C106.15 301.106 110.15 297.506 110.15 292.356C110.15 287.006 106.15 283.256 100.5 283.256ZM98.45 316.595L113 318.545L113 339.695L88 339.695L88 335.695L109.25 335.695L109.25 322.045L98.15 320.595C90.2 319.695 87.25 317.045 87.25 311.045L90.9 311.045C90.9 314.445 92.9 315.895 98.45 316.595ZM88 371.561L88 368.111L93.15 367.611C89.45 365.611 87.25 362.011 87.25 357.761C87.25 350.911 92.9 345.711 100.45 345.711C108.1 345.711 113.75 350.911 113.75 357.761C113.75 362.011 111.55 365.561 107.85 367.561L113 368.111L113 371.561L88 371.561ZM100.5 349.711C94.95 349.711 90.9 353.561 90.9 358.811C90.9 363.961 94.8 367.561 100.5 367.561C106.15 367.561 110.15 363.961 110.15 358.811C110.15 353.461 106.15 349.711 100.5 349.711ZM88 379.95L88 375.35L96.3 382.6C97.6 378.75 100.4 376.25 104.3 376.25C109.65 376.25 113 381.1 113 387.8L113 398.45L88 398.45L88 394.75L95.5 394.75L95.5 387.8C95.5 387.2 95.55 386.65 95.6 386.1L88 379.95ZM104.3 380.1C100.8 380.1 98.75 383.05 98.75 387.8L98.75 394.75L109.7 394.75L109.7 387.8C109.7 383.1 107.65 380.1 104.3 380.1ZM113 418.702L113 443.002L88 443.002L88 439.002L109.25 439.002L109.25 422.702L88 422.702L88 418.702L113 418.702ZM88 474.852L88 470.852L106.85 470.852L88 453.302L88 449.952L113 449.952L113 453.952L94.25 453.952L113 471.552L113 474.852L88 474.852ZM100.45 480.82C108.1 480.82 113.75 486.47 113.75 493.97C113.75 501.67 108.35 507.27 100.45 507.27C92.65 507.27 87.25 501.67 87.25 493.97C87.25 486.47 92.9 480.82 100.45 480.82ZM100.5 484.82C95.05 484.82 91.05 488.77 91.05 493.97C91.05 499.52 94.85 503.27 100.5 503.27C106.15 503.27 110 499.47 110 493.97C110 488.72 105.95 484.82 100.5 484.82ZM88 513.086L113 513.086L113 517.086L102.45 517.086L102.45 534.286L113 534.286L113 538.286L88 538.286L88 534.286L98.6 534.286L98.6 517.086L88 517.086L88 513.086ZM99.35 569.899L99.35 548.249C94.2 548.699 90.45 552.249 90.45 556.999C90.45 560.499 92.25 563.349 95.1 564.999L95.1 569.099C90.25 567.049 87.25 562.599 87.25 556.999C87.25 549.649 92.9 544.199 100.45 544.199C108.1 544.199 113.75 549.549 113.75 556.999C113.75 564.599 108.35 569.949 100.45 569.949C100.1 569.949 99.75 569.899 99.35 569.899ZM101.65 548.249L101.65 565.899C106.9 565.449 110.45 561.949 110.45 556.999C110.45 552.249 106.8 548.699 101.65 548.249ZM113 575.978L113 579.428L108.05 579.928C111.6 582.028 113.75 585.578 113.75 589.778C113.75 596.578 108.1 601.678 100.55 601.678C92.9 601.678 87.25 596.628 87.25 589.778C87.25 585.628 89.35 582.028 92.95 579.978L78 579.978L78 575.978L113 575.978ZM100.5 597.678C106.1 597.678 110.15 593.878 110.15 588.728C110.15 583.478 106.2 579.978 100.5 579.978C94.85 579.978 90.9 583.578 90.9 588.728C90.9 593.878 94.9 597.678 100.5 597.678ZM100.5 609.966C94.95 609.966 90.9 613.816 90.9 619.066C90.9 623.216 93.25 626.516 96.8 627.816L96.8 631.966C91.05 630.316 87.25 625.466 87.25 619.066C87.25 611.566 92.9 605.966 100.45 605.966C108.1 605.966 113.75 611.516 113.75 619.066C113.75 625.416 110 630.266 104.25 631.916L104.25 627.766C107.75 626.416 110.15 623.166 110.15 619.066C110.15 613.816 106 609.966 100.5 609.966ZM98.6 641.793L88 641.793L88 637.793L113 637.793L113 641.793L102.3 641.793L102.3 646.243L113 654.393L113 658.893L100.5 649.243L88 660.093L88 655.393L98.6 646.343L98.6 641.793ZM88 687.138L88 683.688L93.15 683.188C89.45 681.188 87.25 677.588 87.25 673.338C87.25 666.488 92.9 661.288 100.45 661.288C108.1 661.288 113.75 666.488 113.75 673.338C113.75 677.588 111.55 681.138 107.85 683.138L113 683.688L113 687.138L88 687.138ZM100.5 665.288C94.95 665.288 90.9 669.138 90.9 674.388C90.9 679.538 94.8 683.138 100.5 683.138C106.15 683.138 110.15 679.538 110.15 674.388C110.15 669.038 106.15 665.288 100.5 665.288ZM88 695.526L88 690.926L96.3 698.176C97.6 694.326 100.4 691.826 104.3 691.826C109.65 691.826 113 696.676 113 703.376L113 714.026L88 714.026L88 710.326L95.5 710.326L95.5 703.376C95.5 702.776 95.55 702.226 95.6 701.676L88 695.526ZM104.3 695.676C100.8 695.676 98.75 698.626 98.75 703.376L98.75 710.326L109.7 710.326L109.7 703.376C109.7 698.676 107.65 695.676 104.3 695.676ZM80.85 720.428L91.8 721.628L91.8 726.078L80.85 723.828L80.85 720.428ZM115.65 742.091L119.55 742.091C119.65 745.991 120.85 749.141 123 751.941L123 755.241L88 755.241L88 751.241L117.85 751.241C116.45 748.691 115.75 745.591 115.65 742.091ZM123.75 774.539C123.75 781.389 119.8 785.939 113 785.939C100.25 785.939 105.9 767.289 92 766.739L92 786.389L88 786.389L88 762.489L90.65 762.489C108.55 762.489 102.2 781.939 113.2 781.939C117.5 781.939 119.95 778.939 119.95 774.539C119.95 769.489 116.6 766.489 110.45 766.489L110.45 762.489C118.75 762.489 123.75 767.239 123.75 774.539Z" fill="black"/>
<line x1="447.5" y1="792" x2="447.5" y2="598" stroke="black" stroke-width="3"/>
<line x1="345.5" y1="792" x2="345.5" y2="43" stroke="black" stroke-width="3"/>
<line x1="249.5" y1="793" x2="249.5" y2="418" stroke="black" stroke-width="3"/>
<line x1="149.5" y1="793" x2="149.5" y2="246" stroke="black" stroke-width="3"/>
<path d="M602.288 14.9463C602.288 14.9463 584.536 246.256 539.506 192.572C494.476 138.888 448.635 52.234 395.442 45.748C291.442 33.0669 340.9 202.612 274.014 285.247C207.128 367.881 -31.5576 305.748 22.4424 447.748C29.3739 465.975 122.598 666.756 167.325 679.113C212.053 691.469 291.25 560.953 413.531 650.538C510.345 721.466 682.268 425.645 669.996 400.317C585.055 225.008 713.082 308.415 660.148 214.969" stroke="black" stroke-width="3"/>
<path d="M916.128 433.365C916.128 433.365 687.013 545.146 715.613 476.638C744.213 408.13 809.268 350.843 788.847 301.212C759.872 230.79 606.751 325.245 494.629 312.746C382.506 300.247 551.502 -82.1242 248.705 186.177C149.538 274.047 55.6717 376.252 66.2702 421.779C76.8688 467.307 240.737 464.147 216.58 619.291C197.454 742.125 580.877 747.202 598.856 722.65C723.304 552.72 692.103 690.64 754.61 593.428" stroke="black" stroke-width="3"/>
<path d="M912.73 557.87C912.73 557.87 728.468 646.199 749.587 588.207C770.706 530.215 822.144 483.141 803.666 439.71C777.446 378.084 654.461 441.131 561.97 426.503C469.479 411.875 595.046 88.5226 355.685 309.057C277.293 381.284 204.269 479.021 214.541 518.581C224.814 558.141 359.251 561.073 344.768 693.803C333.302 798.89 648.292 816.486 662.208 795.971C758.526 653.971 737.665 771.629 785.634 690.096" stroke="black" stroke-width="3"/>
</g>
<defs>
<clipPath id="clip0_536_502">
<rect width="595" height="842" fill="white"/>
</clipPath>
</defs>
</svg>
