<svg width="595" height="842" viewBox="0 0 595 842" fill="none" xmlns="http://www.w3.org/2000/svg">
<g clip-path="url(#clip0_615_18)">
<rect width="595" height="842" fill="white"/>
<path d="M11.155 23L11.155 15.5H14.725C16.405 15.5 17.53 16.28 17.53 17.42C17.53 18.2 16.93 18.86 16.015 19.175C17.17 19.43 17.875 20.075 17.875 20.975C17.875 22.175 16.6 23 14.725 23H11.155ZM16.45 17.555C16.45 16.82 15.76 16.355 14.725 16.355H12.265L12.265 18.8H14.725C15.685 18.8 16.45 18.26 16.45 17.555ZM16.765 20.885C16.765 20.12 15.985 19.61 14.725 19.61H12.265V22.13H14.725C15.955 22.13 16.765 21.65 16.765 20.885ZM22.731 19.205L25.746 23H24.321L22.026 20.105L19.731 23H18.291L21.306 19.205L18.351 15.5H19.791L22.026 18.305L24.246 15.5H25.671L22.731 19.205ZM26.1577 19.265C26.1577 16.97 27.8527 15.275 30.1027 15.275C32.4127 15.275 34.0927 16.895 34.0927 19.265C34.0927 21.605 32.4127 23.225 30.1027 23.225C27.8527 23.225 26.1577 21.53 26.1577 19.265ZM27.3577 19.25C27.3577 20.885 28.5427 22.085 30.1027 22.085C31.7677 22.085 32.8927 20.945 32.8927 19.25C32.8927 17.555 31.7527 16.4 30.1027 16.4C28.5277 16.4 27.3577 17.615 27.3577 19.25ZM35.1958 21.95H36.3208C36.8908 20.87 37.1758 19.7 37.1758 18.32V15.5L42.9958 15.5V21.95H44.4058V24.95H43.2658V23L36.3058 23V24.95H35.1958V21.95ZM37.4908 21.95L41.8708 21.95V16.535L38.3008 16.535V18.32C38.3008 19.7 38.0308 20.885 37.4908 21.95ZM50.6341 19.25C50.6341 20.915 51.7891 22.13 53.3641 22.13C54.6091 22.13 55.5991 21.425 55.9891 20.36H57.2341C56.7391 22.085 55.2841 23.225 53.3641 23.225C51.1141 23.225 49.4341 21.53 49.4341 19.265C49.4341 16.97 51.0991 15.275 53.3641 15.275C55.2691 15.275 56.7241 16.4 57.2191 18.125H55.9741C55.5691 17.075 54.5941 16.355 53.3641 16.355C51.7891 16.355 50.6341 17.6 50.6341 19.25ZM58.9821 23V15.5L62.5521 15.5C64.2321 15.5 65.3571 16.28 65.3571 17.42C65.3571 18.2 64.7571 18.86 63.8421 19.175C64.9971 19.43 65.7021 20.075 65.7021 20.975C65.7021 22.175 64.4271 23 62.5521 23H58.9821ZM64.2771 17.555C64.2771 16.82 63.5871 16.355 62.5521 16.355H60.0921V18.8H62.5521C63.5121 18.8 64.2771 18.26 64.2771 17.555ZM64.5921 20.885C64.5921 20.12 63.8121 19.61 62.5521 19.61H60.0921V22.13H62.5521C63.7821 22.13 64.5921 21.65 64.5921 20.885ZM66.9096 19.265C66.9096 16.97 68.6046 15.275 70.8546 15.275C73.1646 15.275 74.8446 16.895 74.8446 19.265C74.8446 21.605 73.1646 23.225 70.8546 23.225C68.6046 23.225 66.9096 21.53 66.9096 19.265ZM68.1096 19.25C68.1096 20.885 69.2946 22.085 70.8546 22.085C72.5196 22.085 73.6446 20.945 73.6446 19.25C73.6446 17.555 72.5046 16.4 70.8546 16.4C69.2796 16.4 68.1096 17.615 68.1096 19.25ZM76.0796 19.355C76.0796 16.22 76.4696 14.93 77.3696 13.94C78.7796 12.38 80.5946 13.34 82.4546 11.84L82.9946 12.695C81.0746 14.3 79.5296 13.355 78.3446 14.66C77.7896 15.29 77.4896 16.175 77.3696 17.39C77.9546 16.475 78.9596 15.845 80.1446 15.845C82.1696 15.845 83.6396 17.405 83.6396 19.355C83.6396 21.635 82.2296 23.225 79.8446 23.225C77.5046 23.225 76.0796 21.515 76.0796 19.355ZM79.8446 22.085C81.5396 22.085 82.4396 20.9 82.4396 19.355C82.4396 17.975 81.3746 16.835 79.8446 16.835C78.3296 16.835 77.2796 18.035 77.2796 19.355C77.2796 20.9 78.1646 22.085 79.8446 22.085ZM84.8979 19.265C84.8979 16.97 86.5929 15.275 88.8429 15.275C91.1529 15.275 92.8329 16.895 92.8329 19.265C92.8329 21.605 91.1529 23.225 88.8429 23.225C86.5929 23.225 84.8979 21.53 84.8979 19.265ZM86.0979 19.25C86.0979 20.885 87.2829 22.085 88.8429 22.085C90.5079 22.085 91.6329 20.945 91.6329 19.25C91.6329 17.555 90.4929 16.4 88.8429 16.4C87.2679 16.4 86.0979 17.615 86.0979 19.25ZM93.936 21.95H95.061C95.631 20.87 95.916 19.7 95.916 18.32V15.5H101.736V21.95H103.146V24.95H102.006V23H95.046V24.95H93.936V21.95ZM96.231 21.95H100.611V16.535H97.041V18.32C97.041 19.7 96.771 20.885 96.231 21.95ZM104.934 23V15.5H106.134V18.665H111.294V15.5L112.494 15.5V23H111.294V19.82H106.134V23H104.934ZM114.778 15.5H115.978V17.51H118.483C120.748 17.51 122.158 18.575 122.158 20.255C122.158 22.01 120.838 23 118.483 23L114.778 23V15.5ZM123.763 15.5H124.963V23H123.763V15.5ZM120.958 20.255C120.958 19.16 119.998 18.485 118.483 18.485H115.978V22.04H118.483C120.058 22.04 120.958 21.395 120.958 20.255ZM131.038 14.585C129.718 14.585 128.473 13.76 128.473 12.5H129.433C129.433 13.19 130.138 13.79 131.038 13.79C131.953 13.79 132.643 13.205 132.643 12.5H133.588C133.588 13.655 132.508 14.585 131.038 14.585ZM134.743 23H133.543V17.345L128.278 23H127.273V15.5H128.473V21.125L133.753 15.5L134.743 15.5V23Z" fill="black"/>
<path d="M491 820.5H492.29L495.065 826.59L497.87 820.5H499.145L495.71 828H494.42L491 820.5ZM499.526 824.265C499.526 821.97 501.221 820.275 503.471 820.275C505.781 820.275 507.461 821.895 507.461 824.265C507.461 826.605 505.781 828.225 503.471 828.225C501.221 828.225 499.526 826.53 499.526 824.265ZM500.726 824.25C500.726 825.885 501.911 827.085 503.471 827.085C505.136 827.085 506.261 825.945 506.261 824.25C506.261 822.555 505.121 821.4 503.471 821.4C501.896 821.4 500.726 822.615 500.726 824.25ZM509.281 817.92C509.281 817.53 509.536 817.275 509.911 817.275C510.301 817.275 510.556 817.53 510.556 817.92C510.556 818.295 510.301 818.55 509.911 818.55C509.536 818.55 509.281 818.295 509.281 817.92ZM510.511 828H509.311V820.5H510.511V828ZM513.616 824.25C513.616 825.915 514.771 827.13 516.346 827.13C517.591 827.13 518.581 826.425 518.971 825.36H520.216C519.721 827.085 518.266 828.225 516.346 828.225C514.096 828.225 512.416 826.53 512.416 824.265C512.416 821.97 514.081 820.275 516.346 820.275C518.251 820.275 519.706 821.4 520.201 823.125H518.956C518.551 822.075 517.576 821.355 516.346 821.355C514.771 821.355 513.616 822.6 513.616 824.25ZM522.04 817.92C522.04 817.53 522.295 817.275 522.67 817.275C523.06 817.275 523.315 817.53 523.315 817.92C523.315 818.295 523.06 818.55 522.67 818.55C522.295 818.55 522.04 818.295 522.04 817.92ZM523.27 828H522.07V820.5H523.27V828ZM531.745 824.205V820.5H532.945V828H531.91L531.76 826.515C531.175 827.565 530.155 828.225 528.94 828.225C527.035 828.225 525.685 826.545 525.685 824.205V820.5H526.885V824.205C526.885 825.93 527.845 827.085 529.3 827.085C530.755 827.085 531.745 825.915 531.745 824.205ZM536.465 824.295V828H535.265V820.5H536.3L536.45 821.94C537.005 820.905 537.95 820.275 539.09 820.275C540.425 820.275 541.46 821.13 541.925 822.495C542.42 821.145 543.5 820.275 544.82 820.275C546.65 820.275 547.94 821.94 547.94 824.295V828H546.74V824.295C546.74 822.555 545.81 821.4 544.46 821.4C543.14 821.4 542.21 822.57 542.21 824.295V828H541.01V824.295C541.01 822.555 540.11 821.4 538.73 821.4C537.38 821.4 536.465 822.57 536.465 824.295ZM549.755 827.46C549.755 827.025 550.055 826.725 550.49 826.725C550.97 826.725 551.27 827.025 551.27 827.46C551.27 827.94 550.97 828.225 550.49 828.225C550.055 828.225 549.755 827.94 549.755 827.46ZM553.504 824.25C553.504 825.915 554.659 827.13 556.234 827.13C557.479 827.13 558.469 826.425 558.859 825.36H560.104C559.609 827.085 558.154 828.225 556.234 828.225C553.984 828.225 552.304 826.53 552.304 824.265C552.304 821.97 553.969 820.275 556.234 820.275C558.139 820.275 559.594 821.4 560.089 823.125H558.844C558.439 822.075 557.464 821.355 556.234 821.355C554.659 821.355 553.504 822.6 553.504 824.25ZM561.152 824.265C561.152 821.97 562.847 820.275 565.097 820.275C567.407 820.275 569.087 821.895 569.087 824.265C569.087 826.605 567.407 828.225 565.097 828.225C562.847 828.225 561.152 826.53 561.152 824.265ZM562.352 824.25C562.352 825.885 563.537 827.085 565.097 827.085C566.762 827.085 567.887 825.945 567.887 824.25C567.887 822.555 566.747 821.4 565.097 821.4C563.522 821.4 562.352 822.615 562.352 824.25ZM572.032 824.295V828H570.832V820.5H571.867L572.017 821.94C572.572 820.905 573.517 820.275 574.657 820.275C575.992 820.275 577.027 821.13 577.492 822.495C577.987 821.145 579.067 820.275 580.387 820.275C582.217 820.275 583.507 821.94 583.507 824.295V828H582.307V824.295C582.307 822.555 581.377 821.4 580.027 821.4C578.707 821.4 577.777 822.57 577.777 824.295V828H576.577V824.295C576.577 822.555 575.677 821.4 574.297 821.4C572.947 821.4 572.032 822.57 572.032 824.295Z" fill="black"/>
<path d="M93 792L93 787.7L113.3 778.45L93 769.1L93 764.85L118 776.3L118 780.6L93 792ZM105.55 763.58C97.9 763.58 92.25 757.93 92.25 750.43C92.25 742.73 97.65 737.13 105.55 737.13C113.35 737.13 118.75 742.73 118.75 750.43C118.75 757.93 113.1 763.58 105.55 763.58ZM105.5 759.58C110.95 759.58 114.95 755.63 114.95 750.43C114.95 744.88 111.15 741.13 105.5 741.13C99.85 741.13 96 744.93 96 750.43C96 755.68 100.05 759.58 105.5 759.58ZM84.4 731.064C83.1 731.064 82.25 730.214 82.25 728.964C82.25 727.664 83.1 726.814 84.4 726.814C85.65 726.814 86.5 727.664 86.5 728.964C86.5 730.214 85.65 731.064 84.4 731.064ZM118 726.964L118 730.964L93 730.964L93 726.964L118 726.964ZM105.5 716.612C111.05 716.612 115.1 712.762 115.1 707.512C115.1 703.362 112.75 700.062 109.2 698.762L109.2 694.612C114.95 696.262 118.75 701.112 118.75 707.512C118.75 715.012 113.1 720.612 105.55 720.612C97.9 720.612 92.25 715.062 92.25 707.512C92.25 701.162 96 696.312 101.75 694.662L101.75 698.812C98.25 700.162 95.85 703.412 95.85 707.512C95.85 712.762 100 716.612 105.5 716.612ZM84.4 688.535C83.1 688.535 82.25 687.685 82.25 686.435C82.25 685.135 83.1 684.285 84.4 684.285C85.65 684.285 86.5 685.135 86.5 686.435C86.5 687.685 85.65 688.535 84.4 688.535ZM118 684.435L118 688.435L93 688.435L93 684.435L118 684.435ZM105.35 656.182L93 656.182L93 652.182L118 652.182L118 655.632L113.05 656.132C116.55 658.082 118.75 661.482 118.75 665.532C118.75 671.882 113.15 676.382 105.35 676.382L93 676.382L93 672.382L105.35 672.382C111.1 672.382 114.95 669.182 114.95 664.332C114.95 659.482 111.05 656.182 105.35 656.182ZM105.65 640.449L118 640.449L118 644.449L93 644.449L93 640.999L97.8 640.499C94.35 638.649 92.25 635.499 92.25 631.699C92.25 627.249 95.1 623.799 99.65 622.249C95.15 620.599 92.25 616.999 92.25 612.599C92.25 606.499 97.8 602.199 105.65 602.199L118 602.199L118 606.199L105.65 606.199C99.85 606.199 96 609.299 96 613.799C96 618.199 99.9 621.299 105.65 621.299L118 621.299L118 625.299L105.65 625.299C99.85 625.299 96 628.299 96 632.899C96 637.399 99.9 640.449 105.65 640.449Z" fill="black"/>
<path d="M201.55 784.3L187 782.35L187 761.2L212 761.2L212 765.2L190.75 765.2L190.75 778.85L201.85 780.3C209.8 781.2 212.75 783.85 212.75 789.85L209.1 789.85C209.1 786.45 207.1 785 201.55 784.3ZM200.65 729.433L200.65 751.083C205.8 750.633 209.55 747.083 209.55 742.333C209.55 738.833 207.75 735.983 204.9 734.333L204.9 730.233C209.75 732.283 212.75 736.733 212.75 742.333C212.75 749.683 207.1 755.133 199.55 755.133C191.9 755.133 186.25 749.783 186.25 742.333C186.25 734.733 191.65 729.383 199.55 729.383C199.9 729.383 200.25 729.433 200.65 729.433ZM198.35 751.083L198.35 733.433C193.1 733.883 189.55 737.383 189.55 742.333C189.55 747.083 193.2 750.633 198.35 751.083ZM201.4 719.404L212 719.404L212 723.404L187 723.404L187 719.404L197.7 719.404L197.7 714.954L187 706.804L187 702.304L199.5 711.954L212 701.104L212 705.804L201.4 714.854L201.4 719.404ZM212 697.232L187 697.232L187 693.232L208.2 693.232L208.2 675.632L187 675.632L187 671.632L208.2 671.632L208.2 666.882L220.3 666.882L220.3 670.582L212 670.582L212 697.232ZM212 636.102L212 640.102L193.15 640.102L212 657.652L212 661.002L187 661.002L187 657.002L205.75 657.002L187 639.402L187 636.102L212 636.102ZM212 627.683L212 632.283L203.7 625.033C202.4 628.883 199.6 631.383 195.7 631.383C190.35 631.383 187 626.533 187 619.833L187 609.183L212 609.183L212 612.883L204.5 612.883L204.5 619.833C204.5 620.433 204.45 620.983 204.4 621.533L212 627.683ZM195.7 627.533C199.2 627.533 201.25 624.583 201.25 619.833L201.25 612.883L190.3 612.883L190.3 619.833C190.3 624.533 192.35 627.533 195.7 627.533ZM199.55 590.631C191.9 590.631 186.25 584.981 186.25 577.481C186.25 569.781 191.65 564.181 199.55 564.181C207.35 564.181 212.75 569.781 212.75 577.481C212.75 584.981 207.1 590.631 199.55 590.631ZM199.5 586.631C204.95 586.631 208.95 582.681 208.95 577.481C208.95 571.931 205.15 568.181 199.5 568.181C193.85 568.181 190 571.981 190 577.481C190 582.731 194.05 586.631 199.5 586.631ZM212.75 535.415C212.75 541.565 209.1 546.365 203.6 546.365L203.6 542.665C207.35 542.665 209.7 539.465 209.7 535.415C209.7 531.165 207.85 528.265 205.05 528.265C202.25 528.265 200.4 531.265 200.4 535.765L200.4 538.365L197.9 538.365L197.9 535.765C197.9 531.165 196.6 528.965 193.6 528.965C190.95 528.965 189.35 531.465 189.35 535.515C189.35 539.165 191.7 541.965 194.8 541.965L194.8 545.665C190.05 545.665 186.4 541.215 186.4 535.565C186.4 529.165 189.15 525.115 193.2 525.115C196.15 525.115 198.1 526.615 199.1 529.565C200.25 526.265 202.4 524.415 205.45 524.415C209.8 524.415 212.75 528.865 212.75 535.415ZM212 518.033L187 518.033L187 506.133C187 500.533 189.6 496.783 193.4 496.783C196 496.783 198.2 498.783 199.25 501.833C200.1 497.983 202.25 495.633 205.25 495.633C209.25 495.633 212 499.883 212 506.133L212 518.033ZM193.85 500.383C191.4 500.383 189.85 502.683 189.85 506.133L189.85 514.333L198 514.333L198 506.133C198 502.933 196.2 500.383 193.85 500.383ZM204.95 499.333C202.4 499.333 200.7 501.933 200.7 506.133L200.7 514.333L209.1 514.333L209.1 506.133C209.1 502.033 207.5 499.333 204.95 499.333ZM221.85 478.74L221.85 482.94L212 479.54L212 485.99L187 494.49L187 490.39L207.85 483.24L207.85 478.14L187 470.99L187 466.94L221.85 478.74ZM201.4 459.004L212 459.004L212 463.004L187 463.004L187 459.004L197.7 459.004L197.7 454.554L187 446.404L187 441.904L199.5 451.554L212 440.704L212 445.404L201.4 454.454L201.4 459.004ZM199.55 439.459C191.9 439.459 186.25 433.809 186.25 426.309C186.25 418.609 191.65 413.009 199.55 413.009C207.35 413.009 212.75 418.609 212.75 426.309C212.75 433.809 207.1 439.459 199.55 439.459ZM199.5 435.459C204.95 435.459 208.95 431.509 208.95 426.309C208.95 420.759 205.15 417.009 199.5 417.009C193.85 417.009 190 420.809 190 426.309C190 431.559 194.05 435.459 199.5 435.459ZM212 407.193L187 407.193L187 395.293C187 389.693 189.6 385.943 193.4 385.943C196 385.943 198.2 387.943 199.25 390.993C200.1 387.143 202.25 384.793 205.25 384.793C209.25 384.793 212 389.043 212 395.293L212 407.193ZM193.85 389.543C191.4 389.543 189.85 391.843 189.85 395.293L189.85 403.493L198 403.493L198 395.293C198 392.093 196.2 389.543 193.85 389.543ZM204.95 388.493C202.4 388.493 200.7 391.093 200.7 395.293L200.7 403.493L209.1 403.493L209.1 395.293C209.1 391.193 207.5 388.493 204.95 388.493ZM199.55 380.768C191.9 380.768 186.25 375.118 186.25 367.618C186.25 359.918 191.65 354.318 199.55 354.318C207.35 354.318 212.75 359.918 212.75 367.618C212.75 375.118 207.1 380.768 199.55 380.768ZM199.5 376.768C204.95 376.768 208.95 372.818 208.95 367.618C208.95 362.068 205.15 358.318 199.5 358.318C193.85 358.318 190 362.118 190 367.618C190 372.868 194.05 376.768 199.5 376.768ZM193 344.802L212 344.802L212 348.502L187 348.502L187 344.352L206.5 334.802L187 325.202L187 321.102L212 321.102L212 324.802L193.2 324.802L212 333.652L212 335.952L193 344.802ZM212 275.945L212 279.945L193.15 279.945L212 297.495L212 300.845L187 300.845L187 296.845L205.75 296.845L187 279.245L187 275.945L212 275.945ZM199.5 265.977C205.05 265.977 209.1 262.127 209.1 256.877C209.1 252.727 206.75 249.427 203.2 248.127L203.2 243.977C208.95 245.627 212.75 250.477 212.75 256.877C212.75 264.377 207.1 269.977 199.55 269.977C191.9 269.977 186.25 264.427 186.25 256.877C186.25 250.527 190 245.677 195.75 244.027L195.75 248.177C192.25 249.527 189.85 252.777 189.85 256.877C189.85 262.127 194 265.977 199.5 265.977ZM201.4 234.15L212 234.15L212 238.15L187 238.15L187 234.15L197.7 234.15L197.7 229.7L187 221.55L187 217.05L199.5 226.7L212 215.85L212 220.55L201.4 229.6L201.4 234.15ZM221.85 200.078L221.85 204.278L212 200.878L212 207.328L187 215.828L187 211.728L207.85 204.578L207.85 199.478L187 192.328L187 188.278L221.85 200.078ZM199.5 182.92C205.05 182.92 209.1 179.07 209.1 173.82C209.1 169.67 206.75 166.37 203.2 165.07L203.2 160.92C208.95 162.57 212.75 167.42 212.75 173.82C212.75 181.32 207.1 186.92 199.55 186.92C191.9 186.92 186.25 181.37 186.25 173.82C186.25 167.47 190 162.62 195.75 160.97L195.75 165.12C192.25 166.47 189.85 169.72 189.85 173.82C189.85 179.07 194 182.92 199.5 182.92ZM199.5 153.428C205.05 153.428 209.1 149.578 209.1 144.328C209.1 140.178 206.75 136.878 203.2 135.578L203.2 131.428C208.95 133.078 212.75 137.928 212.75 144.328C212.75 151.828 207.1 157.428 199.55 157.428C191.9 157.428 186.25 151.878 186.25 144.328C186.25 137.978 190 133.128 195.75 131.478L195.75 135.628C192.25 136.978 189.85 140.228 189.85 144.328C189.85 149.578 194 153.428 199.5 153.428ZM212 118.144L190.75 118.144L190.75 128.444L187 128.444L187 103.794L190.75 103.794L190.75 114.144L212 114.144L212 118.144ZM212 98.6969L187 98.6969L187 86.7969C187 81.1969 189.6 77.4469 193.4 77.4469C196 77.4469 198.2 79.4469 199.25 82.4969C200.1 78.6469 202.25 76.2969 205.25 76.2969C209.25 76.2969 212 80.5469 212 86.7969L212 98.6969ZM193.85 81.0469C191.4 81.0469 189.85 83.3469 189.85 86.7969L189.85 94.9969L198 94.9969L198 86.7969C198 83.5969 196.2 81.0469 193.85 81.0469ZM204.95 79.9969C202.4 79.9969 200.7 82.5969 200.7 86.7969L200.7 94.9969L209.1 94.9969L209.1 86.7969C209.1 82.6969 207.5 79.9969 204.95 79.9969ZM200.65 46.5719L200.65 68.2219C205.8 67.7719 209.55 64.2219 209.55 59.4719C209.55 55.9719 207.75 53.1219 204.9 51.4719L204.9 47.3719C209.75 49.4219 212.75 53.8719 212.75 59.4719C212.75 66.8219 207.1 72.2719 199.55 72.2719C191.9 72.2719 186.25 66.9219 186.25 59.4719C186.25 51.8719 191.65 46.5219 199.55 46.5219C199.9 46.5219 200.25 46.5719 200.65 46.5719ZM198.35 68.2219L198.35 50.5719C193.1 51.0219 189.55 54.5219 189.55 59.4719C189.55 64.2219 193.2 67.7719 198.35 68.2219Z" fill="black"/>
<path d="M279.25 776.6C279.25 769.75 283.2 765.2 290 765.2C302.75 765.2 297.1 783.85 311 784.4L311 764.75L315 764.75L315 788.65L312.35 788.65C294.45 788.65 300.8 769.2 289.8 769.2C285.5 769.2 283.05 772.2 283.05 776.6C283.05 781.65 286.4 784.65 292.55 784.65L292.55 788.65C284.25 788.65 279.25 783.9 279.25 776.6ZM307.2 758.572L303.9 758.572L280 740.172L280.05 739.772L280 739.772L280 735.772L303.2 735.772L303.2 730.922L307.2 730.922L307.2 735.772L315 735.772L315 739.772L307.2 739.772L307.2 758.572ZM303.2 753.572L303.2 739.772L284.65 739.772L303.2 753.572ZM299.4 713.23L295.6 713.23L295.6 672.43L299.4 672.43L299.4 713.23ZM297.55 655.28C287 655.28 279.25 649.13 279.25 640.68C279.25 632.18 286.7 625.98 297.55 625.98C308.25 625.98 315.75 632.18 315.75 640.68C315.75 649.13 307.95 655.28 297.55 655.28ZM297.5 651.28C305.8 651.28 311.95 646.88 311.95 640.63C311.95 634.48 305.95 629.98 297.5 629.98C289 629.98 283.05 634.38 283.05 640.63C283.05 646.88 289.1 651.28 297.5 651.28ZM284 603.724L284 621.824L280 621.824L280 599.224L283.35 599.224L315 612.374L315 616.624L284 603.724ZM299.4 581.736L295.6 581.736L295.6 540.936L299.4 540.936L299.4 581.736ZM279.25 510.536C279.25 503.686 283.2 499.136 290 499.136C302.75 499.136 297.1 517.786 311 518.336L311 498.686L315 498.686L315 522.586L312.35 522.586C294.45 522.586 300.8 503.136 289.8 503.136C285.5 503.136 283.05 506.136 283.05 510.536C283.05 515.586 286.4 518.586 292.55 518.586L292.55 522.586C284.25 522.586 279.25 517.836 279.25 510.536ZM297.55 493.121C287 493.121 279.25 486.971 279.25 478.521C279.25 470.021 286.7 463.821 297.55 463.821C308.25 463.821 315.75 470.021 315.75 478.521C315.75 486.971 307.95 493.121 297.55 493.121ZM297.5 489.121C305.8 489.121 311.95 484.721 311.95 478.471C311.95 472.321 305.95 467.821 297.5 467.821C289 467.821 283.05 472.221 283.05 478.471C283.05 484.721 289.1 489.121 297.5 489.121ZM279.25 446.375C279.25 439.525 283.2 434.975 290 434.975C302.75 434.975 297.1 453.625 311 454.175L311 434.525L315 434.525L315 458.425L312.35 458.425C294.45 458.425 300.8 438.975 289.8 438.975C285.5 438.975 283.05 441.975 283.05 446.375C283.05 451.425 286.4 454.425 292.55 454.425L292.55 458.425C284.25 458.425 279.25 453.675 279.25 446.375ZM307.2 428.347L303.9 428.347L280 409.947L280.05 409.547L280 409.547L280 405.547L303.2 405.547L303.2 400.697L307.2 400.697L307.2 405.547L315 405.547L315 409.547L307.2 409.547L307.2 428.347ZM303.2 423.347L303.2 409.547L284.65 409.547L303.2 423.347Z" fill="black"/>
<path d="M384.35 790.2L380.45 790.2C380.35 786.3 379.15 783.15 377 780.35L377 777.05L412 777.05L412 781.05L382.15 781.05C383.55 783.6 384.25 786.7 384.35 790.2ZM381 752.552L381 770.652L377 770.652L377 748.052L380.35 748.052L412 761.202L412 765.452L381 752.552ZM396.4 730.564L392.6 730.564L392.6 689.764L396.4 689.764L396.4 730.564ZM394.55 672.614C384 672.614 376.25 666.464 376.25 658.014C376.25 649.514 383.7 643.314 394.55 643.314C405.25 643.314 412.75 649.514 412.75 658.014C412.75 666.464 404.95 672.614 394.55 672.614ZM394.5 668.614C402.8 668.614 408.95 664.214 408.95 657.964C408.95 651.814 402.95 647.314 394.5 647.314C386 647.314 380.05 651.714 380.05 657.964C380.05 664.214 386.1 668.614 394.5 668.614ZM394.55 639.118C384 639.118 376.25 632.968 376.25 624.518C376.25 616.018 383.7 609.818 394.55 609.818C405.25 609.818 412.75 616.018 412.75 624.518C412.75 632.968 404.95 639.118 394.55 639.118ZM394.5 635.118C402.8 635.118 408.95 630.718 408.95 624.468C408.95 618.318 402.95 613.818 394.5 613.818C386 613.818 380.05 618.218 380.05 624.468C380.05 630.718 386.1 635.118 394.5 635.118ZM396.4 592.771L392.6 592.771L392.6 551.971L396.4 551.971L396.4 592.771ZM376.25 521.571C376.25 514.721 380.2 510.171 387 510.171C399.75 510.171 394.1 528.821 408 529.371L408 509.721L412 509.721L412 533.621L409.35 533.621C391.45 533.621 397.8 514.171 386.8 514.171C382.5 514.171 380.05 517.171 380.05 521.571C380.05 526.621 383.4 529.621 389.55 529.621L389.55 533.621C381.25 533.621 376.25 528.871 376.25 521.571ZM394.55 504.157C384 504.157 376.25 498.007 376.25 489.557C376.25 481.057 383.7 474.857 394.55 474.857C405.25 474.857 412.75 481.057 412.75 489.557C412.75 498.007 404.95 504.157 394.55 504.157ZM394.5 500.157C402.8 500.157 408.95 495.757 408.95 489.507C408.95 483.357 402.95 478.857 394.5 478.857C386 478.857 380.05 483.257 380.05 489.507C380.05 495.757 386.1 500.157 394.5 500.157ZM396.4 457.811L392.6 457.811L392.6 417.011L396.4 417.011L396.4 457.811ZM394.55 399.86C384 399.86 376.25 393.71 376.25 385.26C376.25 376.76 383.7 370.56 394.55 370.56C405.25 370.56 412.75 376.76 412.75 385.26C412.75 393.71 404.95 399.86 394.55 399.86ZM394.5 395.86C402.8 395.86 408.95 391.46 408.95 385.21C408.95 379.06 402.95 374.56 394.5 374.56C386 374.56 380.05 378.96 380.05 385.21C380.05 391.46 386.1 395.86 394.5 395.86ZM394.55 366.364C384 366.364 376.25 360.214 376.25 351.764C376.25 343.264 383.7 337.064 394.55 337.064C405.25 337.064 412.75 343.264 412.75 351.764C412.75 360.214 404.95 366.364 394.55 366.364ZM394.5 362.364C402.8 362.364 408.95 357.964 408.95 351.714C408.95 345.564 402.95 341.064 394.5 341.064C386 341.064 380.05 345.464 380.05 351.714C380.05 357.964 386.1 362.364 394.5 362.364Z" fill="black"/>
<path d="M489 784.45L508 784.45L508 788.15L483 788.15L483 784L502.5 774.45L483 764.85L483 760.75L508 760.75L508 764.45L489.2 764.45L508 773.3L508 775.6L489 784.45ZM508 728.894L508 732.344L502.85 732.844C506.55 734.844 508.75 738.444 508.75 742.694C508.75 749.544 503.1 754.744 495.55 754.744C487.9 754.744 482.25 749.544 482.25 742.694C482.25 738.444 484.45 734.894 488.15 732.894L483 732.344L483 728.894L508 728.894ZM495.5 750.744C501.05 750.744 505.1 746.894 505.1 741.644C505.1 736.494 501.2 732.894 495.5 732.894C489.85 732.894 485.85 736.494 485.85 741.644C485.85 746.994 489.85 750.744 495.5 750.744ZM497.55 717.405L483 715.455L483 694.305L508 694.305L508 698.305L486.75 698.305L486.75 711.955L497.85 713.405C505.8 714.305 508.75 716.955 508.75 722.955L505.1 722.955C505.1 719.555 503.1 718.105 497.55 717.405ZM508 662.439L508 665.889L502.85 666.389C506.55 668.389 508.75 671.989 508.75 676.239C508.75 683.089 503.1 688.289 495.55 688.289C487.9 688.289 482.25 683.089 482.25 676.239C482.25 671.989 484.45 668.439 488.15 666.439L483 665.889L483 662.439L508 662.439ZM495.5 684.289C501.05 684.289 505.1 680.439 505.1 675.189C505.1 670.039 501.2 666.439 495.5 666.439C489.85 666.439 485.85 670.039 485.85 675.189C485.85 680.539 489.85 684.289 495.5 684.289ZM508 654.05L508 658.65L499.7 651.4C498.4 655.25 495.6 657.75 491.7 657.75C486.35 657.75 483 652.9 483 646.2L483 635.55L508 635.55L508 639.25L500.5 639.25L500.5 646.2C500.5 646.8 500.45 647.35 500.4 647.9L508 654.05ZM491.7 653.9C495.2 653.9 497.25 650.95 497.25 646.2L497.25 639.25L486.3 639.25L486.3 646.2C486.3 650.9 488.35 653.9 491.7 653.9ZM483 615.298L483 590.998L508 590.998L508 594.998L486.75 594.998L486.75 611.298L508 611.298L508 615.298L483 615.298ZM508 559.148L508 563.148L489.15 563.148L508 580.698L508 584.048L483 584.048L483 580.048L501.75 580.048L483 562.448L483 559.148L508 559.148ZM495.55 553.18C487.9 553.18 482.25 547.53 482.25 540.03C482.25 532.33 487.65 526.73 495.55 526.73C503.35 526.73 508.75 532.33 508.75 540.03C508.75 547.53 503.1 553.18 495.55 553.18ZM495.5 549.18C500.95 549.18 504.95 545.23 504.95 540.03C504.95 534.48 501.15 530.73 495.5 530.73C489.85 530.73 486 534.53 486 540.03C486 545.28 490.05 549.18 495.5 549.18ZM508 520.914L483 520.914L483 516.914L493.55 516.914L493.55 499.714L483 499.714L483 495.714L508 495.714L508 499.714L497.4 499.714L497.4 516.914L508 516.914L508 520.914ZM496.65 464.101L496.65 485.751C501.8 485.301 505.55 481.751 505.55 477.001C505.55 473.501 503.75 470.651 500.9 469.001L500.9 464.901C505.75 466.951 508.75 471.401 508.75 477.001C508.75 484.351 503.1 489.801 495.55 489.801C487.9 489.801 482.25 484.451 482.25 477.001C482.25 469.401 487.65 464.051 495.55 464.051C495.9 464.051 496.25 464.101 496.65 464.101ZM494.35 485.751L494.35 468.101C489.1 468.551 485.55 472.051 485.55 477.001C485.55 481.751 489.2 485.301 494.35 485.751ZM483 458.022L483 454.572L487.95 454.072C484.4 451.972 482.25 448.422 482.25 444.222C482.25 437.422 487.9 432.322 495.45 432.322C503.1 432.322 508.75 437.372 508.75 444.222C508.75 448.372 506.65 451.972 503.05 454.022L518 454.022L518 458.022L483 458.022ZM495.5 436.322C489.9 436.322 485.85 440.122 485.85 445.272C485.85 450.522 489.8 454.022 495.5 454.022C501.15 454.022 505.1 450.422 505.1 445.272C505.1 440.122 501.1 436.322 495.5 436.322ZM495.5 424.034C501.05 424.034 505.1 420.184 505.1 414.934C505.1 410.784 502.75 407.484 499.2 406.184L499.2 402.034C504.95 403.684 508.75 408.534 508.75 414.934C508.75 422.434 503.1 428.034 495.55 428.034C487.9 428.034 482.25 422.484 482.25 414.934C482.25 408.584 486 403.734 491.75 402.084L491.75 406.234C488.25 407.584 485.85 410.834 485.85 414.934C485.85 420.184 490 424.034 495.5 424.034ZM497.4 392.207L508 392.207L508 396.207L483 396.207L483 392.207L493.7 392.207L493.7 387.757L483 379.607L483 375.107L495.5 384.757L508 373.907L508 378.607L497.4 387.657L497.4 392.207ZM508 346.862L508 350.312L502.85 350.812C506.55 352.812 508.75 356.412 508.75 360.662C508.75 367.512 503.1 372.712 495.55 372.712C487.9 372.712 482.25 367.512 482.25 360.662C482.25 356.412 484.45 352.862 488.15 350.862L483 350.312L483 346.862L508 346.862ZM495.5 368.712C501.05 368.712 505.1 364.862 505.1 359.612C505.1 354.462 501.2 350.862 495.5 350.862C489.85 350.862 485.85 354.462 485.85 359.612C485.85 364.962 489.85 368.712 495.5 368.712ZM508 338.474L508 343.074L499.7 335.824C498.4 339.674 495.6 342.174 491.7 342.174C486.35 342.174 483 337.324 483 330.624L483 319.974L508 319.974L508 323.674L500.5 323.674L500.5 330.624C500.5 331.224 500.45 331.774 500.4 332.324L508 338.474ZM491.7 338.324C495.2 338.324 497.25 335.374 497.25 330.624L497.25 323.674L486.3 323.674L486.3 330.624C486.3 335.324 488.35 338.324 491.7 338.324ZM515.15 313.572L504.2 312.372L504.2 307.922L515.15 310.172L515.15 313.572ZM480.35 291.909L476.45 291.909C476.35 288.009 475.15 284.859 473 282.059L473 278.759L508 278.759L508 282.759L478.15 282.759C479.55 285.309 480.25 288.409 480.35 291.909ZM472.25 259.461C472.25 252.611 476.2 248.061 483 248.061C495.75 248.061 490.1 266.711 504 267.261L504 247.611L508 247.611L508 271.511L505.35 271.511C487.45 271.511 493.8 252.061 482.8 252.061C478.5 252.061 476.05 255.061 476.05 259.461C476.05 264.511 479.4 267.511 485.55 267.511L485.55 271.511C477.25 271.511 472.25 266.761 472.25 259.461Z" fill="black"/>
<path d="M-33.5 616.5C-33.5 616.5 -7.16432 637.348 12.4998 637C55.6866 636.235 28.9996 587.5 51.4998 533.5C74 479.5 57.9999 612 110 568.5C162 525 157.5 598 157.5 598L157.5 790C157.5 790 161.5 833.5 96.5 820.5C31.5 807.5 127.5 857 127.5 857" stroke="black" stroke-width="3"/>
<path d="M295 -1.5C295 -1.5 322.248 36.2794 328.5 64.5C332.686 83.3975 334.512 94.9658 331 114C327.431 133.341 319.724 142.63 310.5 160C297.418 184.632 280.899 193.425 271 219.5C263.034 240.481 260.5 276 260.5 276C260.5 276 262 776.5 260.5 792C259 807.5 254.5 813.873 245 824C230.755 839.184 195 842.5 195 842.5" stroke="black" stroke-width="3"/>
<path d="M309.5 -3.5C309.5 -3.5 346.436 39.6027 354 73.5C358.258 92.5814 357.886 103.999 356.5 123.5C354.047 158.014 345 177.5 331.5 208.5C318 239.5 323.5 287.5 323.5 287.5C323.5 287.5 331.451 331.354 338.5 359C344.332 381.872 355.5 381.5 355.5 417C355.5 452.5 355.5 785.5 355.5 792C355.5 798.5 374.81 805.56 387 814.5C401.612 825.216 409.717 831.349 424 842.5M261 846.5C261 846.5 278.879 828.486 294.5 824C309.337 819.739 313 821 331 822.5C349 824 406.5 843.5 406.5 843.5" stroke="black" stroke-width="3"/>
<path d="M380.5 -1.00006C380.5 -1.00006 390 18 406 39C422 60 432 79.5 444.5 79.5C456.517 79.5 497 22.5 515.5 37C529.703 48.132 526 -1.00005 526 -1.00005M535.5 -1.00005C535.5 -1.00005 538.982 33.859 540 56.4999C540.676 71.5402 544.677 80.7836 541.5 95.4999C537.428 114.356 530.436 123.609 519.5 139.5C498.75 169.651 479.73 178.672 460 209.5C452 222 448 229.5 448 245C448 260.5 450.5 753 450.5 769.5C450.5 769.5 453.493 790.672 458 803.5C463.646 819.571 487 854.5 478.5 842" stroke="black" stroke-width="3"/>
<path d="M598.5 419C598.5 419 581.394 393.003 575 377.5C568.311 361.282 580.405 336.405 568 324C556.5 312.5 542.635 313.286 536.5 296.5C529.246 276.652 532.255 263.619 533 242.5C533.891 217.219 534.957 202.484 543 178.5C549.886 157.967 555.761 146.866 568 129C577.241 115.511 600 92 600 92" stroke="black" stroke-width="3"/>
<path d="M-2 460C-2 460 37.3987 426.05 57 399.5C72.6945 378.242 91 341 91 341C91 341 105.45 312.157 109.5 292.5C114.077 270.286 112 257.181 112 234.5C112 234.5 110.907 207.38 106 191C100.686 173.263 99.2 159.573 84 149C72.5 141 65.5 140 53 149C40.2982 158.145 42.602 178.257 27 179.5C9.3483 180.906 -1.5 138.5 -1.5 138.5" stroke="black" stroke-width="3"/>
</g>
<defs>
<clipPath id="clip0_615_18">
<rect width="595" height="842" fill="white"/>
</clipPath>
</defs>
</svg>
