<svg width="595" height="842" viewBox="0 0 595 842" fill="none" xmlns="http://www.w3.org/2000/svg">
<g clip-path="url(#clip0_536_499)">
<rect width="595" height="842" fill="white"/>
<path d="M200.8 265.5C214.5 265.5 223.6 273.4 223.6 287C223.6 312.5 186.3 301.2 185.2 329H224.5V337H176.7V331.7C176.7 295.9 215.6 308.6 215.6 286.6C215.6 278 209.6 273.1 200.8 273.1C190.7 273.1 184.7 279.8 184.7 292.1H176.7C176.7 275.5 186.2 265.5 200.8 265.5ZM236.856 321.4V314.8L273.656 267L274.456 267.1V267H282.456V313.4H292.156V321.4H282.456V337H274.456V321.4H236.856ZM246.856 313.4H274.456V276.3L246.856 313.4ZM327.539 305.8V298.2L409.139 298.2V305.8L327.539 305.8ZM174.3 426.1C174.3 405 186.6 389.5 203.5 389.5C220.5 389.5 232.9 404.4 232.9 426.1C232.9 447.5 220.5 462.5 203.5 462.5C186.6 462.5 174.3 446.9 174.3 426.1ZM182.3 426C182.3 442.6 191.1 454.9 203.6 454.9C215.9 454.9 224.9 442.9 224.9 426C224.9 409 216.1 397.1 203.6 397.1C191.1 397.1 182.3 409.2 182.3 426ZM277.411 399H241.211V391H286.411V397.7L260.111 461H251.611L277.411 399ZM321.387 429.8V422.2H402.987V429.8H321.387ZM200.8 513.5C214.5 513.5 223.6 521.4 223.6 535C223.6 560.5 186.3 549.2 185.2 577H224.5V585H176.7V579.7C176.7 543.9 215.6 556.6 215.6 534.6C215.6 526 209.6 521.1 200.8 521.1C190.7 521.1 184.7 527.8 184.7 540.1H176.7C176.7 523.5 186.2 513.5 200.8 513.5ZM235.628 550.1C235.628 529 247.928 513.5 264.828 513.5C281.828 513.5 294.228 528.4 294.228 550.1C294.228 571.5 281.828 586.5 264.828 586.5C247.928 586.5 235.628 570.9 235.628 550.1ZM243.628 550C243.628 566.6 252.428 578.9 264.928 578.9C277.228 578.9 286.228 566.9 286.228 550C286.228 533 277.428 521.1 264.928 521.1C252.428 521.1 243.628 533.2 243.628 550ZM329.12 513.5C342.82 513.5 351.92 521.4 351.92 535C351.92 560.5 314.62 549.2 313.52 577H352.82V585H305.02V579.7C305.02 543.9 343.92 556.6 343.92 534.6C343.92 526 337.92 521.1 329.12 521.1C319.02 521.1 313.02 527.8 313.02 540.1H305.02C305.02 523.5 314.52 513.5 329.12 513.5ZM365.177 569.4V562.8L401.977 515L402.777 515.1V515H410.777V561.4H420.477V569.4H410.777V585H402.777V569.4H365.177ZM375.177 561.4H402.777V524.3L375.177 561.4Z" fill="black"/>
<path d="M251 820.5H252.29L255.065 826.59L257.87 820.5H259.145L255.71 828H254.42L251 820.5ZM259.526 824.265C259.526 821.97 261.221 820.275 263.471 820.275C265.781 820.275 267.461 821.895 267.461 824.265C267.461 826.605 265.781 828.225 263.471 828.225C261.221 828.225 259.526 826.53 259.526 824.265ZM260.726 824.25C260.726 825.885 261.911 827.085 263.471 827.085C265.136 827.085 266.261 825.945 266.261 824.25C266.261 822.555 265.121 821.4 263.471 821.4C261.896 821.4 260.726 822.615 260.726 824.25ZM269.281 817.92C269.281 817.53 269.536 817.275 269.911 817.275C270.301 817.275 270.556 817.53 270.556 817.92C270.556 818.295 270.301 818.55 269.911 818.55C269.536 818.55 269.281 818.295 269.281 817.92ZM270.511 828H269.311V820.5H270.511V828ZM273.616 824.25C273.616 825.915 274.771 827.13 276.346 827.13C277.591 827.13 278.581 826.425 278.971 825.36H280.216C279.721 827.085 278.266 828.225 276.346 828.225C274.096 828.225 272.416 826.53 272.416 824.265C272.416 821.97 274.081 820.275 276.346 820.275C278.251 820.275 279.706 821.4 280.201 823.125H278.956C278.551 822.075 277.576 821.355 276.346 821.355C274.771 821.355 273.616 822.6 273.616 824.25ZM282.04 817.92C282.04 817.53 282.295 817.275 282.67 817.275C283.06 817.275 283.315 817.53 283.315 817.92C283.315 818.295 283.06 818.55 282.67 818.55C282.295 818.55 282.04 818.295 282.04 817.92ZM283.27 828H282.07V820.5H283.27V828ZM291.745 824.205V820.5H292.945V828H291.91L291.76 826.515C291.175 827.565 290.155 828.225 288.94 828.225C287.035 828.225 285.685 826.545 285.685 824.205V820.5H286.885V824.205C286.885 825.93 287.845 827.085 289.3 827.085C290.755 827.085 291.745 825.915 291.745 824.205ZM296.465 824.295V828H295.265V820.5H296.3L296.45 821.94C297.005 820.905 297.95 820.275 299.09 820.275C300.425 820.275 301.46 821.13 301.925 822.495C302.42 821.145 303.5 820.275 304.82 820.275C306.65 820.275 307.94 821.94 307.94 824.295V828H306.74V824.295C306.74 822.555 305.81 821.4 304.46 821.4C303.14 821.4 302.21 822.57 302.21 824.295V828H301.01V824.295C301.01 822.555 300.11 821.4 298.73 821.4C297.38 821.4 296.465 822.57 296.465 824.295ZM309.755 827.46C309.755 827.025 310.055 826.725 310.49 826.725C310.97 826.725 311.27 827.025 311.27 827.46C311.27 827.94 310.97 828.225 310.49 828.225C310.055 828.225 309.755 827.94 309.755 827.46ZM313.504 824.25C313.504 825.915 314.659 827.13 316.234 827.13C317.479 827.13 318.469 826.425 318.859 825.36H320.104C319.609 827.085 318.154 828.225 316.234 828.225C313.984 828.225 312.304 826.53 312.304 824.265C312.304 821.97 313.969 820.275 316.234 820.275C318.139 820.275 319.594 821.4 320.089 823.125H318.844C318.439 822.075 317.464 821.355 316.234 821.355C314.659 821.355 313.504 822.6 313.504 824.25ZM321.152 824.265C321.152 821.97 322.847 820.275 325.097 820.275C327.407 820.275 329.087 821.895 329.087 824.265C329.087 826.605 327.407 828.225 325.097 828.225C322.847 828.225 321.152 826.53 321.152 824.265ZM322.352 824.25C322.352 825.885 323.537 827.085 325.097 827.085C326.762 827.085 327.887 825.945 327.887 824.25C327.887 822.555 326.747 821.4 325.097 821.4C323.522 821.4 322.352 822.615 322.352 824.25ZM332.032 824.295V828H330.832V820.5H331.867L332.017 821.94C332.572 820.905 333.517 820.275 334.657 820.275C335.992 820.275 337.027 821.13 337.492 822.495C337.987 821.145 339.067 820.275 340.387 820.275C342.217 820.275 343.507 821.94 343.507 824.295V828H342.307V824.295C342.307 822.555 341.377 821.4 340.027 821.4C338.707 821.4 337.777 822.57 337.777 824.295V828H336.577V824.295C336.577 822.555 335.677 821.4 334.297 821.4C332.947 821.4 332.032 822.57 332.032 824.295Z" fill="black"/>
<path d="M288.617 235.807C260.52 235.807 264.598 208.601 239.22 186.835C221.743 171.846 192.089 171.418 179.399 185.475C166.71 199.532 156.74 226.285 156.74 226.285C156.74 226.285 147.308 260.337 137.706 280.698C126.163 305.178 108.702 310.172 100.545 339.192C92.3878 368.213 89.2153 403.128 87.4027 417.184C85.5902 431.241 90.1219 450.286 96.4664 458.901C102.811 467.517 120.612 454.367 135.44 484.747C150.269 515.128 125.924 501.978 125.924 520.116C125.924 538.254 143.403 536.769 140.425 549.59C135.335 571.506 138.16 594.481 138.613 607.177C139.066 619.874 164.024 635.642 180.306 653.882C196.588 672.121 198.886 666.578 211.576 657.963C224.265 649.347 258.707 620.78 281.819 616.699C304.932 612.619 316.261 610.805 338.921 626.675C361.58 642.546 372.241 652.486 397.382 653.882C423.426 655.327 446.326 646.173 460.374 631.663C474.423 617.153 483.94 591.307 496.176 567.728C508.412 544.149 515.663 482.48 500.255 464.343C484.846 446.205 469.891 425.8 461.734 422.172C453.577 418.545 444.513 415.824 444.513 391.791C444.513 367.759 468.386 342.989 476.236 311.532C482.724 285.533 487.566 258.479 485.3 243.516C483.034 228.552 470.254 188.196 454.483 180.034C438.712 171.871 415.509 174.592 397.835 181.394C380.16 188.196 316.715 235.807 288.617 235.807Z" stroke="black" stroke-width="3"/>
<path d="M287.105 205.715C254.48 205.715 259.216 174.075 229.748 148.763C209.455 131.332 175.022 130.834 160.288 147.182C145.554 163.529 133.978 194.641 133.978 194.641C133.978 194.641 123.026 234.241 111.877 257.92C98.473 286.388 78.1995 292.196 68.7277 325.944C59.2559 359.693 55.5723 400.297 53.4676 416.644C51.363 432.991 56.6249 455.139 63.9918 465.158C71.3588 475.177 92.0279 459.885 109.246 495.215C126.464 530.546 98.1955 515.254 98.1955 536.347C98.1955 557.44 118.492 555.713 115.034 570.623C109.123 596.11 112.403 622.828 112.929 637.593C113.456 652.358 142.435 670.696 161.341 691.907C180.247 713.118 182.915 706.672 197.649 696.653C212.383 686.634 252.375 653.413 279.212 648.667C306.049 643.921 319.204 641.812 345.515 660.268C371.825 678.724 384.204 690.284 413.396 691.907C443.636 693.588 470.226 682.943 486.539 666.068C502.852 649.194 513.902 619.137 528.11 591.716C542.317 564.295 550.737 492.579 532.846 471.486C514.954 450.393 497.589 426.663 488.118 422.445C478.646 418.226 468.122 415.062 468.122 387.114C468.122 359.166 495.841 330.36 504.956 293.778C512.49 263.543 518.112 232.081 515.481 214.679C512.849 197.277 498.011 150.346 479.698 140.854C461.386 131.362 434.444 134.526 413.922 142.436C393.4 150.346 319.73 205.714 287.105 205.715Z" stroke="black" stroke-width="3"/>
<path d="M285.027 174.87C247.674 174.87 253.096 138.687 219.359 109.74C196.125 89.8058 156.703 89.2363 139.834 107.931C122.965 126.626 109.711 162.206 109.711 162.206C109.711 162.206 97.1723 207.493 84.4082 234.572C69.062 267.128 45.8509 273.77 35.0067 312.366C24.1624 350.961 19.945 397.396 17.5354 416.091C15.1258 434.785 21.1501 460.113 29.5845 471.571C38.0189 483.029 61.6829 465.541 81.3959 505.945C101.109 546.35 68.7443 528.861 68.7443 552.983C68.7443 577.105 91.9817 575.131 88.0229 592.182C81.2556 621.329 85.0106 651.884 85.6131 668.769C86.2155 685.655 119.394 706.626 141.039 730.883C162.684 755.14 165.74 747.769 182.609 736.311C199.478 724.852 245.264 686.861 275.99 681.433C306.715 676.006 321.776 673.594 351.899 694.701C382.022 715.807 396.195 729.027 429.616 730.883C464.239 732.806 494.682 720.632 513.358 701.334C532.034 682.036 544.686 647.662 560.952 616.304C577.219 584.945 586.858 502.93 566.374 478.808C545.891 454.686 526.01 427.548 515.165 422.724C504.321 417.899 492.272 414.281 492.272 382.319C492.272 350.358 524.008 317.415 534.444 275.579C543.069 241.002 549.505 205.022 546.493 185.122C543.481 165.221 526.492 111.549 505.526 100.694C484.56 89.8392 453.715 93.4576 430.219 102.503C406.723 111.549 322.379 174.87 285.027 174.87Z" stroke="black" stroke-width="3"/>
<path d="M283.515 145.653C241.635 145.653 247.714 105.093 209.887 72.6441C183.838 50.2983 139.637 49.66 120.723 70.6163C101.81 91.5726 86.9491 131.457 86.9491 131.457C86.9491 131.457 72.8902 182.223 58.5789 212.578C41.3725 249.074 15.348 256.519 3.18927 299.783C-8.96941 343.048 -13.6981 395.101 -16.3997 416.057C-19.1014 437.013 -12.3468 465.406 -2.89007 478.25C6.56667 491.094 33.099 471.49 55.2015 516.782C77.3039 562.075 41.0163 542.47 41.0163 569.511C41.0163 596.551 67.0704 594.338 62.6318 613.452C55.0442 646.125 59.2544 680.377 59.9298 699.305C60.6053 718.233 97.8053 741.742 122.074 768.933C146.343 796.125 149.769 787.862 168.683 775.017C187.596 762.173 238.933 719.585 273.382 713.501C307.832 707.417 324.719 704.713 358.493 728.373C392.267 752.034 408.158 766.853 445.63 768.933C484.449 771.088 518.582 757.442 539.523 735.809C560.463 714.177 574.648 675.644 592.886 640.492C611.124 605.34 621.931 513.403 598.965 486.362C575.999 459.321 553.708 428.901 541.549 423.493C529.39 418.085 515.881 414.029 515.881 378.2C515.881 342.372 551.464 305.444 563.164 258.547C572.835 219.787 580.052 179.454 576.674 157.145C573.297 134.837 554.248 74.6725 530.741 62.5042C507.234 50.3359 472.65 54.3919 446.306 64.5322C419.962 74.6725 325.395 145.653 283.515 145.653Z" stroke="black" stroke-width="3"/>
<path d="M282.047 115.437C235.773 115.437 242.49 70.4991 200.694 34.5483C171.911 9.79093 123.072 9.08366 102.174 32.3017C81.2763 55.5197 64.8563 99.7087 64.8563 99.7087C64.8563 99.7087 49.3222 155.954 33.5092 189.585C14.4975 230.019 -14.2578 238.267 -27.6923 286.201C-41.1268 334.135 -46.3516 391.806 -49.3367 415.024C-52.3219 438.241 -44.8586 469.698 -34.4095 483.928C-23.9605 498.159 5.35584 476.439 29.7774 526.619C54.199 576.8 14.1039 555.08 14.1039 585.039C14.1039 614.997 42.8918 612.545 37.9874 633.722C29.6036 669.922 34.2556 707.869 35.0019 728.84C35.7483 749.812 76.8517 775.857 103.667 805.984C130.482 836.11 134.268 826.955 155.166 812.724C176.064 798.493 232.787 751.309 270.852 744.569C308.916 737.828 327.575 734.832 364.893 761.046C402.211 787.26 419.769 803.679 461.173 805.984C504.066 808.371 541.78 793.252 564.917 769.285C588.055 745.318 603.728 702.626 623.88 663.68C644.032 624.734 655.974 522.875 630.597 492.916C605.221 462.957 580.591 429.254 567.157 423.262C553.722 417.27 538.795 412.776 538.795 373.081C538.795 333.386 578.112 292.473 591.04 240.514C601.726 197.571 609.699 152.885 605.967 128.169C602.235 103.453 581.189 36.7956 555.215 23.3141C529.241 9.83251 491.028 14.3263 461.92 25.561C432.812 36.7956 328.321 115.437 282.047 115.437Z" stroke="black" stroke-width="3"/>
</g>
<defs>
<clipPath id="clip0_536_499">
<rect width="595" height="842" fill="white"/>
</clipPath>
</defs>
</svg>
