<svg width="182" height="182" viewBox="0 0 182 182" fill="none" xmlns="http://www.w3.org/2000/svg">
<mask id="path-1-inside-1_305_23" fill="white">
<path fill-rule="evenodd" clip-rule="evenodd" d="M62 11C66.9706 11 71 6.97056 71 2C71 1.31818 70.9242 0.654062 70.7805 0.0156259C70.7793 0.0104157 70.7782 0.00520677 70.777 0H74C85.0457 0 94 8.95431 94 20V162C94 173.046 85.0457 182 74 182H20C8.9543 182 0 173.046 0 162V20C0 8.9543 8.95431 0 20 0H22.223C22.209 0.061822 22.1956 0.123886 22.1828 0.186184C22.063 0.772062 22 1.37868 22 2C22 6.97056 26.0294 11 31 11L62 11Z"/>
</mask>
<path fill-rule="evenodd" clip-rule="evenodd" d="M62 11C66.9706 11 71 6.97056 71 2C71 1.31818 70.9242 0.654062 70.7805 0.0156259C70.7793 0.0104157 70.7782 0.00520677 70.777 0H74C85.0457 0 94 8.95431 94 20V162C94 173.046 85.0457 182 74 182H20C8.9543 182 0 173.046 0 162V20C0 8.9543 8.95431 0 20 0H22.223C22.209 0.061822 22.1956 0.123886 22.1828 0.186184C22.063 0.772062 22 1.37868 22 2C22 6.97056 26.0294 11 31 11L62 11Z" fill="black"/>
<path d="M62 11L62 9L62 9L62 11ZM70.7805 0.0156259L72.7317 -0.42346L72.7315 -0.424337L70.7805 0.0156259ZM70.777 0V-2H68.2718L68.8267 0.442957L70.777 0ZM22.223 0L24.1734 0.442585L24.7277 -2H22.223V0ZM22.1828 0.186184L20.2235 -0.214787L20.2235 -0.214768L22.1828 0.186184ZM31 11L31 9H31V11ZM69 2C69 5.86599 65.866 9 62 9L62 13C68.0751 13 73 8.07513 73 2H69ZM68.8293 0.454711C68.9408 0.949992 69 1.46687 69 2H73C73 1.16949 72.9076 0.358132 72.7317 -0.42346L68.8293 0.454711ZM72.7315 -0.424337C72.7304 -0.429399 72.7289 -0.43604 72.7273 -0.442957L68.8267 0.442957C68.8274 0.446453 68.8283 0.450231 68.8295 0.455589L72.7315 -0.424337ZM70.777 2H74V-2H70.777V2ZM74 2C83.9411 2 92 10.0589 92 20H96C96 7.84974 86.1503 -2 74 -2V2ZM92 20V162H96V20H92ZM92 162C92 171.941 83.9411 180 74 180V184C86.1503 184 96 174.15 96 162H92ZM74 180H20V184H74V180ZM20 180C10.0589 180 2 171.941 2 162H-2C-2 174.15 7.84973 184 20 184V180ZM2 162V20H-2V162H2ZM2 20C2 10.0589 10.0589 2 20 2V-2C7.84974 -2 -2 7.84973 -2 20H2ZM20 2H22.223V-2H20V2ZM24.1422 0.587155C24.1521 0.538758 24.1625 0.490567 24.1734 0.442585L20.2726 -0.442585C20.2554 -0.366923 20.239 -0.290987 20.2235 -0.214787L24.1422 0.587155ZM24 2C24 1.51412 24.0492 1.04183 24.1422 0.587136L20.2235 -0.214768C20.0767 0.502299 20 1.24323 20 2H24ZM31 9C27.134 9 24 5.86599 24 2H20C20 8.07513 24.9249 13 31 13V9ZM62 9L31 9L31 13L62 13L62 9Z" fill="black" mask="url(#path-1-inside-1_305_23)"/>
<mask id="path-3-inside-2_305_23" fill="white">
<path fill-rule="evenodd" clip-rule="evenodd" d="M182 108C182 96.9543 173.046 88 162 88L20 88C8.95431 88 3.23464e-06 96.9543 3.23464e-06 108L0 162C-4.82823e-07 173.046 8.9543 182 20 182L162 182C173.046 182 182 173.046 182 162V158.945C181.672 158.981 181.338 159 181 159C176.029 159 172 154.971 172 150V119C172 114.029 176.029 110 181 110C181.338 110 181.672 110.019 182 110.055V108Z"/>
</mask>
<path fill-rule="evenodd" clip-rule="evenodd" d="M182 108C182 96.9543 173.046 88 162 88L20 88C8.95431 88 3.23464e-06 96.9543 3.23464e-06 108L0 162C-4.82823e-07 173.046 8.9543 182 20 182L162 182C173.046 182 182 173.046 182 162V158.945C181.672 158.981 181.338 159 181 159C176.029 159 172 154.971 172 150V119C172 114.029 176.029 110 181 110C181.338 110 181.672 110.019 182 110.055V108Z" fill="black"/>
<path d="M162 88L162 90H162V88ZM20 88L20 86L20 88ZM3.23464e-06 108L2 108V108H3.23464e-06ZM0 162L-2 162L0 162ZM20 182L20 180H20V182ZM162 182L162 184H162V182ZM182 158.945H184V156.712L181.78 156.957L182 158.945ZM182 110.055L181.78 112.043L184 112.288V110.055H182ZM162 90C171.941 90 180 98.0589 180 108H184C184 95.8497 174.15 86 162 86V90ZM20 90L162 90L162 86L20 86L20 90ZM2 108C2 98.0589 10.0589 90 20 90L20 86C7.84974 86 -2 95.8497 -2 108H2ZM2 162L2 108L-2 108L-2 162L2 162ZM20 180C10.0589 180 2 171.941 2 162L-2 162C-2 174.15 7.84973 184 20 184V180ZM162 180L20 180L20 184L162 184L162 180ZM180 162C180 171.941 171.941 180 162 180V184C174.15 184 184 174.15 184 162H180ZM180 158.945V162H184V158.945H180ZM181.78 156.957C181.525 156.985 181.264 157 181 157V161C181.412 161 181.819 160.977 182.22 160.933L181.78 156.957ZM181 157C177.134 157 174 153.866 174 150H170C170 156.075 174.925 161 181 161V157ZM174 150V119H170V150H174ZM174 119C174 115.134 177.134 112 181 112V108C174.925 108 170 112.925 170 119H174ZM181 112C181.264 112 181.525 112.015 181.78 112.043L182.22 108.067C181.819 108.023 181.412 108 181 108V112ZM180 108V110.055H184V108H180Z" fill="black" mask="url(#path-3-inside-2_305_23)"/>
<path d="M104.221 45.9645C103.841 46.3653 103.858 46.9982 104.258 47.3783L110.789 53.5709C111.19 53.9509 111.823 53.9341 112.203 53.5333C112.583 53.1326 112.566 52.4996 112.165 52.1196L106.36 46.615L111.865 40.8099C112.245 40.4092 112.228 39.7762 111.827 39.3962C111.426 39.0162 110.794 39.033 110.413 39.4338L104.221 45.9645ZM133.535 78.3598C133.925 78.7503 134.558 78.7503 134.949 78.3597L141.313 71.9957C141.703 71.6051 141.703 70.972 141.313 70.5815C140.922 70.1909 140.289 70.191 139.898 70.5815L134.242 76.2384L128.585 70.5817C128.194 70.1911 127.561 70.1911 127.17 70.5817C126.78 70.9722 126.78 71.6054 127.17 71.9959L133.535 78.3598ZM134.242 46.6524L135.242 46.6525L134.242 46.6524ZM104.946 46.6526C104.973 47.6523 104.973 47.6523 104.973 47.6523C104.974 47.6522 104.974 47.6522 104.974 47.6522C104.975 47.6522 104.977 47.6522 104.978 47.6521C104.982 47.652 104.987 47.6519 104.994 47.6517C105.008 47.6513 105.029 47.6508 105.057 47.6501C105.112 47.6486 105.194 47.6465 105.301 47.6437C105.515 47.6382 105.83 47.6303 106.23 47.6204C107.03 47.6006 108.174 47.5733 109.546 47.5429C112.291 47.4821 115.949 47.4092 119.607 47.3606C123.267 47.3119 126.918 47.2877 129.651 47.324C131.02 47.3422 132.143 47.3754 132.917 47.4268C133.309 47.4528 133.581 47.4817 133.742 47.5096C133.832 47.525 133.836 47.5318 133.798 47.5171C133.784 47.5117 133.694 47.4778 133.591 47.394C133.493 47.315 133.242 47.0705 133.242 46.6524L135.242 46.6525C135.242 46.21 134.976 45.942 134.85 45.8401C134.718 45.7336 134.587 45.6776 134.517 45.6508C134.368 45.5935 134.208 45.5604 134.083 45.5388C133.815 45.4925 133.458 45.4583 133.049 45.4312C132.221 45.3762 131.055 45.3425 129.678 45.3242C126.917 45.2876 123.245 45.3121 119.581 45.3607C115.915 45.4095 112.25 45.4825 109.502 45.5434C108.128 45.5738 106.982 45.6012 106.181 45.621C105.78 45.6309 105.465 45.6389 105.25 45.6444C105.142 45.6472 105.06 45.6493 105.004 45.6507C104.977 45.6515 104.956 45.652 104.941 45.6524C104.934 45.6526 104.929 45.6527 104.925 45.6528C104.924 45.6529 104.922 45.6529 104.921 45.6529C104.921 45.6529 104.92 45.653 104.92 45.653C104.92 45.653 104.92 45.653 104.946 46.6526ZM133.242 46.6524C133.241 51.2746 133.241 59.0246 133.241 65.6192C133.242 68.9164 133.242 71.9248 133.242 74.1088C133.242 75.2009 133.242 76.0868 133.242 76.6998C133.242 77.0062 133.242 77.2445 133.242 77.4061C133.242 77.4869 133.242 77.5485 133.242 77.59C133.242 77.6107 133.242 77.6264 133.242 77.6368C133.242 77.6421 133.242 77.646 133.242 77.6487C133.242 77.65 133.242 77.651 133.242 77.6517C133.242 77.652 133.242 77.6522 133.242 77.6524C133.242 77.6526 133.242 77.6527 134.242 77.6526C135.242 77.6526 135.242 77.6525 135.242 77.6524C135.242 77.6522 135.242 77.652 135.242 77.6516C135.242 77.651 135.242 77.65 135.242 77.6487C135.242 77.646 135.242 77.6421 135.242 77.6368C135.242 77.6263 135.242 77.6107 135.242 77.5899C135.242 77.5485 135.242 77.4868 135.242 77.406C135.242 77.2444 135.242 77.0062 135.242 76.6997C135.242 76.0868 135.242 75.2009 135.242 74.1088C135.242 71.9248 135.242 68.9164 135.241 65.6191C135.241 59.0246 135.241 51.2746 135.242 46.6525L133.242 46.6524Z" fill="black"/>
</svg>
