<svg width="41" height="41" viewBox="0 0 41 41" fill="none" xmlns="http://www.w3.org/2000/svg">
<path d="M4.76777 1.16094C3.79146 0.184633 2.20854 0.184633 1.23223 1.16094C0.255922 2.13725 0.255922 3.72017 1.23223 4.69648L4.76777 1.16094ZM38.3553 40.7841C39.7361 40.7841 40.8553 39.6648 40.8553 38.2841L40.8553 15.7841C40.8553 14.4033 39.7361 13.2841 38.3553 13.2841C36.9746 13.2841 35.8553 14.4033 35.8553 15.7841V35.7841H15.8553C14.4746 35.7841 13.3553 36.9033 13.3553 38.2841C13.3553 39.6648 14.4746 40.7841 15.8553 40.7841L38.3553 40.7841ZM1.23223 4.69648L36.5876 40.0518L40.1231 36.5163L4.76777 1.16094L1.23223 4.69648Z" fill="#FFBE0B"/>
</svg>
