<svg width="41" height="41" viewBox="0 0 41 41" fill="none" xmlns="http://www.w3.org/2000/svg">
<path d="M36.5876 1.23223C37.5639 0.255922 39.1468 0.255922 40.1231 1.23223C41.0994 2.20854 41.0994 3.79146 40.1231 4.76777L36.5876 1.23223ZM3.00001 40.8553C1.6193 40.8553 0.500007 39.7361 0.500007 38.3553L0.500007 15.8553C0.500007 14.4746 1.6193 13.3553 3.00001 13.3553C4.38072 13.3553 5.50001 14.4746 5.50001 15.8553V35.8553H25.5C26.8807 35.8553 28 36.9746 28 38.3553C28 39.7361 26.8807 40.8553 25.5 40.8553L3.00001 40.8553ZM40.1231 4.76777L4.76777 40.1231L1.23224 36.5876L36.5876 1.23223L40.1231 4.76777Z" fill="#FFBE0B"/>
</svg>
